<svg width="50" height="18" viewBox="0 0 50 18" fill="none" xmlns="http://www.w3.org/2000/svg">
<mask id="path-1-inside-1_178_64" fill="white">
<path d="M47.6423 3.30762C46.1229 1.78682 44.1012 0.949316 41.9499 0.949316H37.6474C37.301 0.949316 36.9889 1.15791 36.8563 1.47783C36.8041 1.604 36.785 1.7375 36.7947 1.86826H34.2394L33.5714 1.2001C33.4107 1.03945 33.193 0.949316 32.9659 0.949316H24.6794C24.333 0.949316 24.021 1.15791 23.8884 1.47783C23.8361 1.604 23.817 1.7375 23.8268 1.86826H21.2704L20.6021 1.2C20.4416 1.03945 20.2238 0.949316 19.9968 0.949316H11.7103C11.3641 0.949316 11.0519 1.15791 10.9192 1.47783C10.867 1.604 10.8479 1.7375 10.8576 1.86826H8.30215L7.69795 1.26406C7.50947 1.07568 7.24375 0.985937 6.97969 1.0208C3.00059 1.5498 0 4.98057 0 9.00059C0 11.1507 0.837402 13.1722 2.35811 14.6926C3.87861 16.2133 5.9001 17.0507 8.0502 17.0507H41.9497C46.3887 17.0507 49.9999 13.4394 49.9999 9.00049C50 6.85117 49.1627 4.8293 47.6423 3.30762ZM38.2115 3.58057L39.063 4.43203C39.3746 4.74424 39.375 5.25166 39.0635 5.56309C38.7521 5.87441 38.2446 5.87441 37.9331 5.56309L35.9511 3.58057H38.2115ZM25.2435 3.58057L26.0949 4.43203C26.4065 4.74424 26.4069 5.25166 26.0959 5.5625C25.7838 5.87412 25.2763 5.87441 24.9648 5.56299L22.9824 3.58057H25.2435V3.58057ZM12.2743 3.58057L13.1264 4.43262C13.2778 4.58398 13.3611 4.78506 13.361 4.99873C13.3609 5.21162 13.2778 5.41182 13.1262 5.56309C12.9755 5.71377 12.7749 5.79687 12.5615 5.79687C12.3481 5.79687 12.1476 5.71377 11.9968 5.56299L10.0144 3.58057H12.2743V3.58057ZM41.9498 15.3385H8.0502C6.35752 15.3385 4.76602 14.6792 3.56895 13.4818C2.37168 12.2848 1.7123 10.6933 1.7123 9.00059C1.7123 5.97402 3.87129 3.37207 6.79814 2.78584L10.7861 6.77383C11.2604 7.24795 11.8909 7.50908 12.5616 7.50908C13.2324 7.50908 13.863 7.24785 14.3365 6.77422C14.8114 6.30039 15.073 5.66992 15.0734 4.99922C15.0736 4.32783 14.8122 3.69658 14.3371 3.22148L13.777 2.66143H19.6419L23.7541 6.77363C24.7324 7.75195 26.3257 7.75215 27.3062 6.77363C28.2847 5.79521 28.2851 4.20205 27.3062 3.22148L26.7461 2.66143H32.6109L36.7227 6.77412C37.7025 7.75244 39.2959 7.75205 40.2741 6.77363C41.2527 5.79521 41.253 4.20205 40.2741 3.22148L39.714 2.66143H41.9496C43.6434 2.66143 45.2347 3.3207 46.4307 4.51767C47.6282 5.71611 48.2876 7.3081 48.2876 9.00039C48.2877 12.4954 45.4445 15.3385 41.9498 15.3385Z"/>
</mask>
<path d="M47.6423 3.30762L46.2274 4.72119L46.2275 4.72124L47.6423 3.30762ZM36.8563 1.47783L35.0086 0.712448L35.0085 0.712665L36.8563 1.47783ZM36.7947 1.86826V3.86826H38.9497L38.7892 1.71931L36.7947 1.86826ZM34.2394 1.86826L32.8249 3.28227L33.4108 3.86826H34.2394V1.86826ZM33.5714 1.2001L34.9858 -0.21391L34.9856 -0.214117L33.5714 1.2001ZM23.8884 1.47783L22.0408 0.711966L22.0405 0.712665L23.8884 1.47783ZM23.8268 1.86826V3.86826H25.9817L25.8212 1.71931L23.8268 1.86826ZM21.2704 1.86826L19.8562 3.28248L20.442 3.86826H21.2704V1.86826ZM20.6021 1.2L19.1879 2.61421L19.1879 2.61421L20.6021 1.2ZM10.9192 1.47783L9.07169 0.711966L9.0714 0.712665L10.9192 1.47783ZM10.8576 1.86826V3.86826H13.0126L12.8521 1.71931L10.8576 1.86826ZM8.30215 1.86826L6.88793 3.28247L7.47372 3.86826H8.30215V1.86826ZM7.69795 1.26406L9.11216 -0.150152L9.1118 -0.150519L7.69795 1.26406ZM6.97969 1.0208L6.71791 -0.961995L6.71612 -0.961756L6.97969 1.0208ZM2.35811 14.6926L3.77241 13.2785L3.77218 13.2782L2.35811 14.6926ZM49.9999 9.00049L47.9999 9.0004V9.00049H49.9999ZM38.2115 3.58057L39.6257 2.16635L39.04 1.58057H38.2115V3.58057ZM39.063 4.43203L40.4785 3.01915L40.4772 3.01782L39.063 4.43203ZM39.0635 5.56309L37.6495 4.14865L37.6493 4.14887L39.0635 5.56309ZM37.9331 5.56309L36.5187 6.97712L36.5193 6.97774L37.9331 5.56309ZM35.9511 3.58057V1.58057H31.1235L34.5367 4.99461L35.9511 3.58057ZM26.0949 4.43203L27.5105 3.01915L27.5091 3.01782L26.0949 4.43203ZM26.0959 5.5625L27.509 6.97782L27.5097 6.97716L26.0959 5.5625ZM24.9648 5.56299L26.3791 4.14877V4.14877L24.9648 5.56299ZM22.9824 3.58057V1.58057H18.154L21.5682 4.99478L22.9824 3.58057ZM13.1264 4.43262L11.7122 5.84683L11.7126 5.84729L13.1264 4.43262ZM13.361 4.99873L15.361 4.99965V4.99964L13.361 4.99873ZM13.1262 5.56309L11.7138 4.14705L11.712 4.14887L13.1262 5.56309ZM11.9968 5.56299L13.411 4.14877V4.14877L11.9968 5.56299ZM10.0144 3.58057V1.58057H5.18593L8.60014 4.99478L10.0144 3.58057ZM3.56895 13.4818L4.98333 12.0678L4.98304 12.0675L3.56895 13.4818ZM6.79814 2.78584L8.21236 1.37163L7.45524 0.614505L6.40536 0.824789L6.79814 2.78584ZM10.7861 6.77383L9.37192 8.18804L9.37206 8.18819L10.7861 6.77383ZM14.3365 6.77422L12.9239 5.3584L12.9222 5.36015L14.3365 6.77422ZM15.0734 4.99922L17.0734 5.00038V4.9998L15.0734 4.99922ZM14.3371 3.22148L15.7513 1.80727L15.7512 1.80715L14.3371 3.22148ZM13.777 2.66143V0.661425H8.94794L12.3629 4.07576L13.777 2.66143ZM19.6419 2.66143L21.0561 1.24721L20.4703 0.661425H19.6419V2.66143ZM23.7541 6.77363L25.1683 5.35942L23.7541 6.77363ZM27.3062 6.77363L28.719 8.18933L28.7205 8.18785L27.3062 6.77363ZM27.3062 3.22148L28.7217 1.80854L28.7203 1.80715L27.3062 3.22148ZM26.7461 2.66143V0.661425H21.9171L25.332 4.07576L26.7461 2.66143ZM32.6109 2.66143L34.0253 1.24738L33.4395 0.661425H32.6109V2.66143ZM36.7227 6.77412L35.3083 8.18817L35.3096 8.18946L36.7227 6.77412ZM40.2741 6.77363L38.8601 5.35928L38.8598 5.35956L40.2741 6.77363ZM40.2741 3.22148L41.6895 1.80847L41.6882 1.80714L40.2741 3.22148ZM39.714 2.66143V0.661425H34.8849L38.2999 4.07576L39.714 2.66143ZM46.4307 4.51767L45.0159 5.93131L45.0159 5.93137L46.4307 4.51767ZM48.2876 9.00039L46.2876 9.00039V9.00045L48.2876 9.00039ZM49.0571 1.89404C47.1622 -0.00256217 44.6314 -1.05068 41.9499 -1.05068V2.94932C43.5709 2.94932 45.0835 3.57619 46.2274 4.72119L49.0571 1.89404ZM41.9499 -1.05068H37.6474V2.94932H41.9499V-1.05068ZM37.6474 -1.05068C36.492 -1.05068 35.4507 -0.354754 35.0086 0.712448L38.7041 2.24322C38.5271 2.67057 38.11 2.94932 37.6474 2.94932V-1.05068ZM35.0085 0.712665C34.8303 1.1431 34.7685 1.59132 34.8003 2.01721L38.7892 1.71931C38.8014 1.88368 38.7779 2.06491 38.7042 2.243L35.0085 0.712665ZM36.7947 -0.13174H34.2394V3.86826H36.7947V-0.13174ZM35.6538 0.454253L34.9858 -0.21391L32.157 2.6141L32.8249 3.28227L35.6538 0.454253ZM34.9856 -0.214117C34.4497 -0.750003 33.7232 -1.05068 32.9659 -1.05068V2.94932C32.6628 2.94932 32.3718 2.82891 32.1572 2.61431L34.9856 -0.214117ZM32.9659 -1.05068H24.6794V2.94932H32.9659V-1.05068ZM24.6794 -1.05068C23.5237 -1.05068 22.4829 -0.354469 22.0408 0.711966L25.7359 2.2437C25.5591 2.67029 25.1424 2.94932 24.6794 2.94932V-1.05068ZM22.0405 0.712665C21.8623 1.14307 21.8005 1.59129 21.8323 2.01721L25.8212 1.71931C25.8335 1.88371 25.81 2.06494 25.7362 2.243L22.0405 0.712665ZM23.8268 -0.13174H21.2704V3.86826H23.8268V-0.13174ZM22.6846 0.454045L22.0164 -0.214215L19.1879 2.61421L19.8562 3.28248L22.6846 0.454045ZM22.0164 -0.214214C21.4805 -0.750124 20.7538 -1.05068 19.9968 -1.05068V2.94932C19.6938 2.94932 19.4028 2.82903 19.1879 2.61421L22.0164 -0.214214ZM19.9968 -1.05068H11.7103V2.94932H19.9968V-1.05068ZM11.7103 -1.05068C10.555 -1.05068 9.51386 -0.354713 9.07169 0.711966L12.7668 2.2437C12.5899 2.67053 12.1731 2.94932 11.7103 2.94932V-1.05068ZM9.0714 0.712665C8.89317 1.14308 8.83136 1.5913 8.86317 2.01721L12.8521 1.71931C12.8643 1.8837 12.8408 2.06493 12.7671 2.243L9.0714 0.712665ZM10.8576 -0.13174H8.30215V3.86826H10.8576V-0.13174ZM9.71636 0.454047L9.11216 -0.150152L6.28374 2.67827L6.88793 3.28247L9.71636 0.454047ZM9.1118 -0.150519C8.48221 -0.779779 7.59668 -1.07802 6.71791 -0.961994L7.24147 3.00359C6.89082 3.04989 6.53674 2.93114 6.2841 2.67864L9.1118 -0.150519ZM6.71612 -0.961756C1.74068 -0.300294 -2 3.98028 -2 9.00059H2C2 5.98085 4.26049 3.3999 7.24326 3.00336L6.71612 -0.961756ZM-2 9.00059C-2 11.6812 -0.95182 14.2114 0.944028 16.1069L3.77218 13.2782C2.62663 12.1329 2 10.6202 2 9.00059H-2ZM0.943801 16.1067C2.83935 18.0025 5.36957 19.0507 8.05019 19.0507V15.0507C6.43062 15.0507 4.91787 14.4241 3.77241 13.2785L0.943801 16.1067ZM8.05019 19.0507H41.9497V15.0507H8.05019V19.0507ZM41.9497 19.0507C47.4933 19.0507 51.9999 14.5439 51.9999 9.00049H47.9999C47.9999 12.3348 45.2841 15.0507 41.9497 15.0507V19.0507ZM51.9999 9.00058C52 6.32062 50.9519 3.79039 49.0571 1.89399L46.2275 4.72124C47.3735 5.8682 48 7.38172 47.9999 9.0004L51.9999 9.00058ZM36.7973 4.99478L37.6488 5.84624L40.4772 3.01782L39.6257 2.16635L36.7973 4.99478ZM37.6474 5.84491C37.1821 5.37867 37.1774 4.62061 37.6495 4.14865L40.4775 6.97752C41.5726 5.88271 41.5671 4.10981 40.4785 3.01915L37.6474 5.84491ZM37.6493 4.14887C38.1192 3.67891 38.8777 3.67954 39.3469 4.14843L36.5193 6.97774C37.6116 8.06928 39.3851 8.06992 40.4777 6.9773L37.6493 4.14887ZM39.3475 4.14905L37.3655 2.16653L34.5367 4.99461L36.5187 6.97712L39.3475 4.14905ZM35.9511 5.58057H38.2115V1.58057H35.9511V5.58057ZM23.8292 4.99478L24.6807 5.84624L27.5091 3.01782L26.6577 2.16635L23.8292 4.99478ZM24.6794 5.84491C24.2149 5.37958 24.2083 4.62135 24.6821 4.14784L27.5097 6.97716C28.6055 5.88197 28.5982 4.10889 27.5105 3.01915L24.6794 5.84491ZM24.6828 4.14718C25.1496 3.68111 25.9076 3.67727 26.3791 4.14877L23.5506 6.9772C24.645 8.07155 26.418 8.06714 27.509 6.97782L24.6828 4.14718ZM26.3791 4.14877L24.3966 2.16635L21.5682 4.99478L23.5506 6.9772L26.3791 4.14877ZM22.9824 5.58057H25.2435V1.58057H22.9824V5.58057ZM10.8601 4.99478L11.7122 5.84683L14.5406 3.0184L13.6885 2.16635L10.8601 4.99478ZM11.7126 5.84729C11.4891 5.62389 11.3609 5.31592 11.361 4.99781L15.361 4.99964C15.3614 4.2542 15.0666 3.54408 14.5401 3.01795L11.7126 5.84729ZM11.361 4.99781C11.3612 4.67809 11.4906 4.36964 11.7138 4.14705L14.5386 6.97912C15.0651 6.45399 15.3607 5.74515 15.361 4.99965L11.361 4.99781ZM11.712 4.14887C11.9365 3.92431 12.2447 3.79687 12.5615 3.79687V7.79687C13.3051 7.79687 14.0145 7.50323 14.5404 6.9773L11.712 4.14887ZM12.5615 3.79687C12.8785 3.79687 13.1867 3.92444 13.411 4.14877L10.5826 6.9772C11.1085 7.5031 11.8178 7.79687 12.5615 7.79687V3.79687ZM13.411 4.14877L11.4286 2.16635L8.60014 4.99478L10.5826 6.9772L13.411 4.14877ZM10.0144 5.58057H12.2743V1.58057H10.0144V5.58057ZM41.9498 13.3385H8.05019V17.3385H41.9498V13.3385ZM8.05019 13.3385C6.88806 13.3385 5.80533 12.89 4.98333 12.0678L2.15456 14.8959C3.7267 16.4684 5.82698 17.3385 8.05019 17.3385V13.3385ZM4.98304 12.0675C4.16083 11.2454 3.7123 10.1626 3.7123 9.00059H-0.287695C-0.287695 11.2239 0.582527 13.3241 2.15485 14.8962L4.98304 12.0675ZM3.7123 9.00059C3.7123 6.9316 5.19432 5.1468 7.19093 4.74689L6.40536 0.824789C2.54826 1.59734 -0.287695 5.01645 -0.287695 9.00059H3.7123ZM5.38393 4.20005L9.37192 8.18804L12.2003 5.35961L8.21236 1.37163L5.38393 4.20005ZM9.37206 8.18819C10.2214 9.03735 11.3606 9.50908 12.5616 9.50908V5.50908C12.4212 5.50908 12.2993 5.45854 12.2002 5.35947L9.37206 8.18819ZM12.5616 9.50908C13.7625 9.50908 14.902 9.03739 15.7509 8.18828L12.9222 5.36015C12.824 5.45831 12.7024 5.50908 12.5616 5.50908V9.50908ZM15.7491 8.19003C16.6 7.3411 17.0727 6.20164 17.0734 5.00038L13.0734 4.99805C13.0734 5.13821 13.0229 5.25968 12.9239 5.3584L15.7491 8.19003ZM17.0734 4.9998C17.0738 3.79744 16.6014 2.65734 15.7513 1.80727L12.9229 4.6357C13.023 4.73582 13.0735 4.85822 13.0734 4.99864L17.0734 4.9998ZM15.7512 1.80715L15.191 1.24709L12.3629 4.07576L12.923 4.63582L15.7512 1.80715ZM13.777 4.66143H19.6419V0.661425H13.777V4.66143ZM18.2277 4.07564L22.3399 8.18785L25.1683 5.35942L21.0561 1.24721L18.2277 4.07564ZM22.3399 8.18785C24.1 9.94793 26.9584 9.9462 28.719 8.18932L25.8935 5.35794C25.6929 5.55809 25.3649 5.55597 25.1683 5.35942L22.3399 8.18785ZM28.7205 8.18785C30.4804 6.42788 30.4794 3.56936 28.7217 1.80854L25.8908 4.63443C26.0907 4.83474 26.0889 5.16255 25.892 5.35942L28.7205 8.18785ZM28.7203 1.80715L28.1602 1.24709L25.332 4.07576L25.8922 4.63582L28.7203 1.80715ZM26.7461 4.66143H32.6109V0.661425H26.7461V4.66143ZM31.1966 4.07547L35.3083 8.18817L38.137 5.36007L34.0253 1.24738L31.1966 4.07547ZM35.3096 8.18946C37.07 9.94708 39.9289 9.9476 41.6885 8.1877L38.8598 5.35956C38.6629 5.5565 38.3351 5.5578 38.1357 5.35878L35.3096 8.18946ZM41.6882 8.18799C43.4486 6.4279 43.4473 3.56922 41.6895 1.80847L38.8587 4.6345C39.0588 4.83488 39.0568 5.16253 38.8601 5.35928L41.6882 8.18799ZM41.6882 1.80714L41.1281 1.24709L38.2999 4.07576L38.86 4.63582L41.6882 1.80714ZM39.714 4.66143H41.9496V0.661425H39.714V4.66143ZM41.9496 4.66143C43.1131 4.66143 44.1953 5.1101 45.0159 5.93131L47.8455 3.10404C46.274 1.5313 44.1736 0.661425 41.9496 0.661425V4.66143ZM45.0159 5.93137C45.8391 6.75517 46.2876 7.83884 46.2876 9.00039H50.2876C50.2876 6.77736 49.4173 4.67705 47.8454 3.10398L45.0159 5.93137ZM46.2876 9.00045C46.2877 11.3909 44.34 13.3385 41.9498 13.3385V17.3385C46.5491 17.3385 50.2877 13.6 50.2876 9.00033L46.2876 9.00045Z" fill="#8B6AFF" mask="url(#path-1-inside-1_178_64)"/>
</svg>
