<svg width="50" height="50" viewBox="0 0 50 50" fill="none" xmlns="http://www.w3.org/2000/svg">
<path d="M8.59375 22.6562H24.2188" stroke="#8B6AFF" stroke-width="1.5" stroke-linejoin="round"/>
<path d="M8.59375 35.1562H24.2188" stroke="#8B6AFF" stroke-width="1.5" stroke-linejoin="round"/>
<path d="M21.0938 1.5625H11.7188V6.25H21.0938V1.5625Z" stroke="#8B6AFF" stroke-width="1.5" stroke-linejoin="round"/>
<path d="M19.5312 6.25V9.375L24.6406 14.4844C25.3709 15.2165 25.781 16.2082 25.7812 17.2422V22.6562H24.2188V35.1562H25.7812V46.875C25.7812 47.2894 25.6166 47.6868 25.3236 47.9799C25.0306 48.2729 24.6332 48.4375 24.2188 48.4375H8.59375C8.17935 48.4375 7.78192 48.2729 7.4889 47.9799C7.19587 47.6868 7.03125 47.2894 7.03125 46.875V35.1562H8.59375V22.6562H7.03125V17.2422C7.03147 16.2082 7.44165 15.2165 8.17188 14.4844L13.2812 9.375V6.25" stroke="#8B6AFF" stroke-width="1.5" stroke-linejoin="round"/>
<path d="M16.4062 32.0312C18.9951 32.0312 21.0938 30.6321 21.0938 28.9062C21.0938 27.1804 18.9951 25.7812 16.4062 25.7812C13.8174 25.7812 11.7188 27.1804 11.7188 28.9062C11.7188 30.6321 13.8174 32.0312 16.4062 32.0312Z" stroke="#8B6AFF" stroke-width="1.5" stroke-linejoin="round"/>
<path d="M42.9688 25H28.9062V48.4375H42.9688V25Z" stroke="#8B6AFF" stroke-width="1.5" stroke-linejoin="round"/>
<path d="M28.9062 45.3125H42.9688" stroke="#8B6AFF" stroke-width="1.5" stroke-linejoin="round"/>
<path d="M28.9062 29.6875H42.9688" stroke="#8B6AFF" stroke-width="1.5" stroke-linejoin="round"/>
<path d="M39.8438 32.0312V39.8438" stroke="#8B6AFF" stroke-width="1.5" stroke-linejoin="round"/>
<path d="M39.8438 41.4062V42.9688" stroke="#8B6AFF" stroke-width="1.5" stroke-linejoin="round"/>
<path d="M39.8438 25V20.3125L42.9688 17.1875" stroke="#8B6AFF" stroke-width="1.5" stroke-linejoin="round"/>
</svg>
