<svg width="50" height="50" viewBox="0 0 50 50" fill="none" xmlns="http://www.w3.org/2000/svg">
<g clip-path="url(#clip0_178_18)">
<path d="M23.3814 3.55908L23.3813 3.55903C21.6492 2.22181 20.4678 1.476 19.6468 1.1627C19.246 1.00976 19.0042 0.989397 18.8687 1.00379C18.7619 1.01514 18.6835 1.05005 18.5906 1.14301L18.5901 1.14355C18.4971 1.23654 18.4621 1.31512 18.4507 1.42205C18.4363 1.55764 18.4567 1.79945 18.6097 2.20028C18.9229 3.02138 19.6687 4.20279 21.0057 5.93497C22.9786 8.49094 25.8398 11.6771 29.0648 14.9024C32.4453 18.2827 35.793 21.2629 38.3485 23.2018L40.7164 24.9985H37.7441H7.16834C7.09452 24.9985 7.03479 25.0582 7.03479 25.132V28.4057C7.03479 28.4639 7.07385 28.5171 7.13203 28.5333L7.86319 28.7374V29.4965V44.5019V45.261L7.13203 45.4651C7.07377 45.4813 7.03479 45.5344 7.03479 45.5927V48.8665C7.03479 48.9403 7.09452 49.0001 7.16834 49.0001H42.8296C42.9035 49.0001 42.9632 48.9404 42.9632 48.8665V45.5927C42.9632 45.5345 42.9243 45.4813 42.8658 45.465L42.1349 45.2608V44.5019V29.4965V28.7376L42.8658 28.5334C42.9243 28.5171 42.9632 28.464 42.9632 28.4057V25.1581C42.9628 25.1474 42.9626 25.1355 42.9626 25.1228V25.0943L42.9642 25.0658C42.9779 24.8254 42.8846 24.3741 42.4582 23.5846C42.0432 22.8163 41.3762 21.8401 40.4078 20.5856C38.4349 18.0296 35.5739 14.8434 32.3488 11.6182C32.3487 11.6182 32.3487 11.6182 32.3487 11.6182M23.3814 3.55908L32.3487 11.6182M23.3814 3.55908C25.9373 5.53203 29.1235 8.39312 32.3487 11.6182M23.3814 3.55908L32.3487 11.6182M21.0129 2.18408L19.6305 3.56655C21.0713 5.7997 24.3802 9.83971 29.2537 14.7134C33.5041 18.9639 37.736 22.6243 40.391 24.3179L41.7683 22.9314C40.3202 20.694 37.0172 16.6646 32.1598 11.8073C27.2864 6.93376 23.2463 3.62474 21.0129 2.18408ZM7.3019 47.7328V48.7328H8.3019H41.6959H41.6961H42.6961V47.7328V46.7261V45.7261H41.6961H8.3019H7.3019V46.7261V47.7328ZM8.1303 32.6313V33.6313H9.1303H28.8797C28.9536 33.6313 29.0132 33.691 29.0132 33.7649V40.2332C29.0132 40.3071 28.9535 40.3668 28.8797 40.3668H9.1303H8.1303V41.3668V44.459V45.459H9.1303H40.8677H41.8677V44.459V29.5391V28.5391H40.8677H9.1303H8.1303V29.5391V32.6313ZM8.1303 39.0997V40.0997H9.1303H27.7461H28.7461V39.0997V34.8984V33.8984H27.7461H9.1303H8.1303V34.8984V39.0997ZM7.3019 27.272V28.272H8.3019H41.6959H41.6961H42.6961V27.272V26.2654V25.2654H41.6961H8.3019H7.3019V26.2654V27.272Z" stroke="#8B6AFF" stroke-width="2"/>
</g>
<defs>
<clipPath id="clip0_178_18">
<rect width="50" height="50" fill="white"/>
</clipPath>
</defs>
</svg>
