<svg width="50" height="50" viewBox="0 0 50 50" fill="none" xmlns="http://www.w3.org/2000/svg">
<mask id="path-1-inside-1_179_3" fill="white">
<path d="M38.3645 15.7025C34.6839 13.5725 31.8759 10.241 30.4051 6.27981C30.8618 6.06188 31.3725 5.93952 31.9113 5.93952H33.636C33.6369 5.93952 33.6377 5.93974 33.6385 5.93974C33.644 5.93974 33.6495 5.93888 33.655 5.93877C33.6803 5.93823 33.7053 5.93693 33.7299 5.93423C33.7384 5.93326 33.7468 5.93153 33.7554 5.93035C33.7787 5.927 33.8018 5.92279 33.8244 5.91749C33.828 5.91663 33.8318 5.91631 33.8355 5.91544L36.6369 5.21512C37.3833 5.0284 37.9047 4.36069 37.9047 3.59125V2.34838C37.9047 1.57894 37.3833 0.911123 36.6368 0.724514L33.8355 0.0241901C33.8312 0.0231102 33.8267 0.0226782 33.8224 0.0215983C33.8067 0.0179266 33.7908 0.0149028 33.7747 0.012203C33.7628 0.0101512 33.7508 0.00820734 33.7389 0.00669546C33.7256 0.00507559 33.712 0.00388769 33.6983 0.00291577C33.6837 0.00183585 33.6691 0.000971922 33.6545 0.000647948C33.6494 0.000647948 33.6445 0 33.6392 0H22.9756C21.8361 0 20.7649 0.443737 19.9593 1.24935L13.807 7.40173C13.3265 7.88218 13.1841 8.59816 13.4441 9.22592C13.7042 9.85367 14.3111 10.2592 14.9906 10.2592H18.1425V11.2311H18.0885C17.1655 11.2311 16.4147 11.982 16.4147 12.905V15.3103C16.4147 16.416 16.114 17.5015 15.5451 18.4495L13.3163 22.1641C11.9521 24.4378 11.231 27.0411 11.231 29.6927V44.0065C11.231 47.3113 13.9196 50 17.2245 50H27.5916C30.8965 50 33.5852 47.3113 33.5852 44.0065V29.6927C33.5852 27.0411 32.8641 24.4378 31.4999 22.1641L29.271 18.4495C28.7021 17.5015 28.4015 16.416 28.4015 15.3103V12.905C28.4015 11.982 27.6506 11.2311 26.7276 11.2311H26.6736V10.2592H27.5915C28.0388 10.2592 28.4015 9.89654 28.4015 9.44924C28.4015 8.66965 28.6573 7.94892 29.0888 7.36587C30.7382 11.4501 33.7085 14.8796 37.553 17.1045C37.6807 17.1785 37.8203 17.2136 37.958 17.2136C38.2375 17.2136 38.5096 17.0686 38.6597 16.8092C38.8839 16.4219 38.7517 15.9265 38.3645 15.7025V15.7025ZM36.285 2.34838V3.59114C36.285 3.61598 36.2681 3.63758 36.2441 3.64352L34.4491 4.09222V1.8473L36.244 2.296C36.2682 2.30194 36.285 2.32354 36.285 2.34838V2.34838ZM14.7053 22.9976L16.9341 19.2829C17.4819 18.3699 17.8326 17.3559 17.9692 16.3067H21.5981V31.8614C21.4 31.8004 21.2314 31.7164 21.0369 31.6191C20.576 31.3886 20.0024 31.1016 18.9477 31.1016C17.8932 31.1016 17.3196 31.3887 16.8588 31.6192C16.457 31.8203 16.1667 31.9656 15.4948 31.9656C14.8225 31.9656 14.5321 31.8203 14.1302 31.6191C13.8041 31.4559 13.4205 31.265 12.8508 31.1671V29.6928C12.8508 27.3347 13.4921 25.0195 14.7053 22.9976V22.9976ZM22.4081 43.0886C22.9142 43.0886 23.326 43.5003 23.326 44.0065V44.9244H21.4901V44.0065C21.4901 43.5003 21.9019 43.0886 22.4081 43.0886ZM27.5916 48.3801H17.2245C14.8128 48.3801 12.8508 46.4181 12.8508 44.0065V32.8275C13.0461 32.8884 13.2132 32.9716 13.4055 33.0678C13.8664 33.2984 14.44 33.5853 15.4948 33.5853C16.5494 33.5853 17.1229 33.2983 17.5838 33.0677C17.9856 32.8666 18.2759 32.7214 18.9477 32.7214C19.6198 32.7214 19.9101 32.8666 20.3121 33.0678C20.6395 33.2316 21.0248 33.4234 21.5981 33.5209V41.4147C21.5981 41.4768 21.6058 41.5369 21.619 41.5949C20.6049 41.9276 19.8703 42.8826 19.8703 44.0065V45.7343C19.8703 46.1816 20.2329 46.5443 20.6802 46.5443H24.1359C24.5832 46.5443 24.9459 46.1816 24.9459 45.7343V44.0065C24.9459 42.8826 24.2112 41.9276 23.1972 41.5949C23.2103 41.5369 23.218 41.4768 23.218 41.4147V33.5187C23.784 33.4204 24.1657 33.2302 24.4907 33.0677C24.8927 32.8666 25.1832 32.7213 25.8556 32.7213C26.5296 32.7213 26.8207 32.8666 27.2236 33.0679C27.6851 33.2984 28.2595 33.5852 29.3154 33.5852C30.3713 33.5852 30.9458 33.2984 31.4073 33.0679C31.6007 32.9713 31.7688 32.8878 31.9654 32.8268V44.0065C31.9653 46.4181 30.0033 48.3801 27.5916 48.3801V48.3801ZM30.111 22.9976C31.3242 25.0197 31.9654 27.3348 31.9654 29.6928V31.1668C31.3946 31.2647 31.0103 31.4556 30.6836 31.6188C30.2806 31.8201 29.9895 31.9654 29.3155 31.9654C28.6415 31.9654 28.3504 31.8201 27.9475 31.6188C27.486 31.3883 26.9116 31.1015 25.8557 31.1015C24.8008 31.1015 24.2271 31.3884 23.7662 31.619C23.5761 31.7141 23.4105 31.7964 23.2182 31.8571V16.3067H26.8472C26.9838 17.3558 27.3344 18.3698 27.8823 19.2829L30.111 22.9976V22.9976ZM26.7817 12.905V14.6868H18.0344V12.905C18.0344 12.8752 18.0586 12.851 18.0884 12.851H26.7277C26.7575 12.851 26.7817 12.8752 26.7817 12.905ZM25.0539 11.2311H19.7623V10.2592H25.0539V11.2311ZM26.8456 8.63931H14.9906C14.9712 8.63931 14.9545 8.63931 14.9407 8.60594C14.927 8.57257 14.9387 8.5608 14.9523 8.54708L21.1047 2.39471C21.6045 1.89503 22.2689 1.61987 22.9756 1.61987H32.8292V4.31965H31.9113C29.3584 4.31965 27.2351 6.19428 26.8456 8.63931Z"/>
</mask>
<path d="M38.3645 15.7025C34.6839 13.5725 31.8759 10.241 30.4051 6.27981C30.8618 6.06188 31.3725 5.93952 31.9113 5.93952H33.636C33.6369 5.93952 33.6377 5.93974 33.6385 5.93974C33.644 5.93974 33.6495 5.93888 33.655 5.93877C33.6803 5.93823 33.7053 5.93693 33.7299 5.93423C33.7384 5.93326 33.7468 5.93153 33.7554 5.93035C33.7787 5.927 33.8018 5.92279 33.8244 5.91749C33.828 5.91663 33.8318 5.91631 33.8355 5.91544L36.6369 5.21512C37.3833 5.0284 37.9047 4.36069 37.9047 3.59125V2.34838C37.9047 1.57894 37.3833 0.911123 36.6368 0.724514L33.8355 0.0241901C33.8312 0.0231102 33.8267 0.0226782 33.8224 0.0215983C33.8067 0.0179266 33.7908 0.0149028 33.7747 0.012203C33.7628 0.0101512 33.7508 0.00820734 33.7389 0.00669546C33.7256 0.00507559 33.712 0.00388769 33.6983 0.00291577C33.6837 0.00183585 33.6691 0.000971922 33.6545 0.000647948C33.6494 0.000647948 33.6445 0 33.6392 0H22.9756C21.8361 0 20.7649 0.443737 19.9593 1.24935L13.807 7.40173C13.3265 7.88218 13.1841 8.59816 13.4441 9.22592C13.7042 9.85367 14.3111 10.2592 14.9906 10.2592H18.1425V11.2311H18.0885C17.1655 11.2311 16.4147 11.982 16.4147 12.905V15.3103C16.4147 16.416 16.114 17.5015 15.5451 18.4495L13.3163 22.1641C11.9521 24.4378 11.231 27.0411 11.231 29.6927V44.0065C11.231 47.3113 13.9196 50 17.2245 50H27.5916C30.8965 50 33.5852 47.3113 33.5852 44.0065V29.6927C33.5852 27.0411 32.8641 24.4378 31.4999 22.1641L29.271 18.4495C28.7021 17.5015 28.4015 16.416 28.4015 15.3103V12.905C28.4015 11.982 27.6506 11.2311 26.7276 11.2311H26.6736V10.2592H27.5915C28.0388 10.2592 28.4015 9.89654 28.4015 9.44924C28.4015 8.66965 28.6573 7.94892 29.0888 7.36587C30.7382 11.4501 33.7085 14.8796 37.553 17.1045C37.6807 17.1785 37.8203 17.2136 37.958 17.2136C38.2375 17.2136 38.5096 17.0686 38.6597 16.8092C38.8839 16.4219 38.7517 15.9265 38.3645 15.7025V15.7025ZM36.285 2.34838V3.59114C36.285 3.61598 36.2681 3.63758 36.2441 3.64352L34.4491 4.09222V1.8473L36.244 2.296C36.2682 2.30194 36.285 2.32354 36.285 2.34838V2.34838ZM14.7053 22.9976L16.9341 19.2829C17.4819 18.3699 17.8326 17.3559 17.9692 16.3067H21.5981V31.8614C21.4 31.8004 21.2314 31.7164 21.0369 31.6191C20.576 31.3886 20.0024 31.1016 18.9477 31.1016C17.8932 31.1016 17.3196 31.3887 16.8588 31.6192C16.457 31.8203 16.1667 31.9656 15.4948 31.9656C14.8225 31.9656 14.5321 31.8203 14.1302 31.6191C13.8041 31.4559 13.4205 31.265 12.8508 31.1671V29.6928C12.8508 27.3347 13.4921 25.0195 14.7053 22.9976V22.9976ZM22.4081 43.0886C22.9142 43.0886 23.326 43.5003 23.326 44.0065V44.9244H21.4901V44.0065C21.4901 43.5003 21.9019 43.0886 22.4081 43.0886ZM27.5916 48.3801H17.2245C14.8128 48.3801 12.8508 46.4181 12.8508 44.0065V32.8275C13.0461 32.8884 13.2132 32.9716 13.4055 33.0678C13.8664 33.2984 14.44 33.5853 15.4948 33.5853C16.5494 33.5853 17.1229 33.2983 17.5838 33.0677C17.9856 32.8666 18.2759 32.7214 18.9477 32.7214C19.6198 32.7214 19.9101 32.8666 20.3121 33.0678C20.6395 33.2316 21.0248 33.4234 21.5981 33.5209V41.4147C21.5981 41.4768 21.6058 41.5369 21.619 41.5949C20.6049 41.9276 19.8703 42.8826 19.8703 44.0065V45.7343C19.8703 46.1816 20.2329 46.5443 20.6802 46.5443H24.1359C24.5832 46.5443 24.9459 46.1816 24.9459 45.7343V44.0065C24.9459 42.8826 24.2112 41.9276 23.1972 41.5949C23.2103 41.5369 23.218 41.4768 23.218 41.4147V33.5187C23.784 33.4204 24.1657 33.2302 24.4907 33.0677C24.8927 32.8666 25.1832 32.7213 25.8556 32.7213C26.5296 32.7213 26.8207 32.8666 27.2236 33.0679C27.6851 33.2984 28.2595 33.5852 29.3154 33.5852C30.3713 33.5852 30.9458 33.2984 31.4073 33.0679C31.6007 32.9713 31.7688 32.8878 31.9654 32.8268V44.0065C31.9653 46.4181 30.0033 48.3801 27.5916 48.3801V48.3801ZM30.111 22.9976C31.3242 25.0197 31.9654 27.3348 31.9654 29.6928V31.1668C31.3946 31.2647 31.0103 31.4556 30.6836 31.6188C30.2806 31.8201 29.9895 31.9654 29.3155 31.9654C28.6415 31.9654 28.3504 31.8201 27.9475 31.6188C27.486 31.3883 26.9116 31.1015 25.8557 31.1015C24.8008 31.1015 24.2271 31.3884 23.7662 31.619C23.5761 31.7141 23.4105 31.7964 23.2182 31.8571V16.3067H26.8472C26.9838 17.3558 27.3344 18.3698 27.8823 19.2829L30.111 22.9976V22.9976ZM26.7817 12.905V14.6868H18.0344V12.905C18.0344 12.8752 18.0586 12.851 18.0884 12.851H26.7277C26.7575 12.851 26.7817 12.8752 26.7817 12.905ZM25.0539 11.2311H19.7623V10.2592H25.0539V11.2311ZM26.8456 8.63931H14.9906C14.9712 8.63931 14.9545 8.63931 14.9407 8.60594C14.927 8.57257 14.9387 8.5608 14.9523 8.54708L21.1047 2.39471C21.6045 1.89503 22.2689 1.61987 22.9756 1.61987H32.8292V4.31965H31.9113C29.3584 4.31965 27.2351 6.19428 26.8456 8.63931Z" stroke="#8B6AFF" stroke-width="4" mask="url(#path-1-inside-1_179_3)"/>
</svg>
