<svg width="80" height="80" viewBox="0 0 80 80" fill="none" xmlns="http://www.w3.org/2000/svg">
<g clip-path="url(#clip0_43_125)">
<path d="M17.1429 5C17.1429 2.23906 19.6964 0 22.8571 0C26.0179 0 28.5714 2.23906 28.5714 5V10H51.4286V5C51.4286 2.23906 53.9821 0 57.1429 0C60.3036 0 62.8571 2.23906 62.8571 5V10H71.4286C76.1607 10 80 13.3578 80 17.5V30H60H40H0V17.5C0 13.3578 3.8375 10 8.57143 10H17.1429V5ZM80 72.5C80 76.6406 76.1607 80 71.4286 80H8.57143C3.8375 80 0 76.6406 0 72.5V30H40H60H80V72.5Z" fill="#4ADEB6"/>
<g clip-path="url(#clip1_43_125)">
<path d="M62 30.0312C62 31.6142 60.7432 33.0723 58.625 34.25C56.0674 35.665 52.2617 36.667 47.876 36.9658C47.5596 36.8164 47.2256 36.667 46.8916 36.5264C43.4199 35.0762 38.8145 34.25 33.875 34.25C33.1455 34.25 32.4336 34.2676 31.7217 34.3027L31.625 34.25C29.5068 33.0723 28.25 31.6142 28.25 30.0312C28.25 26.1482 35.7295 23 45.125 23C54.4414 23 62 26.1482 62 30.0312ZM31.124 37.1592C32.0205 37.0977 32.9346 37.0625 33.875 37.0625C39.3418 37.0625 44.1934 38.1436 47.2783 39.8223C49.458 41.0088 50.75 42.4854 50.75 44.0938C50.75 44.3662 50.6885 44.7881 50.5654 45.1221C50.1611 46.2822 49.001 47.3457 47.4893 48.251C47.4805 48.251 47.4629 48.2598 47.4541 48.2686C47.4277 48.2861 47.4014 48.2949 47.375 48.3125C44.2988 50.0176 39.3945 51.125 33.875 51.125C28.6367 51.125 23.9486 50.1318 20.8531 48.5674C20.6888 48.4795 20.5288 48.3213 20.3741 48.3125C18.2551 47.1348 17 45.6758 17 44.0938C17 41.0352 21.696 38.4248 28.25 37.4668C29.1729 37.3262 30.1309 37.2207 31.124 37.1592ZM51.4443 39.4004C53.9316 39.0137 56.208 38.3984 58.1416 37.5986C59.5742 37.001 60.9014 36.2627 62 35.3574V38.4688C62 40.165 60.5498 41.7295 58.1504 42.9424C56.8584 43.5928 55.3027 44.1377 53.5449 44.5596C53.5537 44.4102 53.5625 44.252 53.5625 44.0938C53.5625 42.1689 52.6309 40.5869 51.4443 39.4004ZM50.75 52.5312C50.75 54.1133 49.4932 55.5723 47.375 56.75C47.2168 56.7588 47.0586 56.917 46.9004 57.0049C43.7979 58.5693 39.1133 59.5625 33.875 59.5625C28.3555 59.5625 23.4529 58.4551 20.3741 56.75C18.2551 55.5723 17 54.1133 17 52.5312V49.4199C18.0942 50.3252 19.4275 51.0635 20.861 51.6611C24.3336 53.1113 28.9355 53.9375 33.875 53.9375C38.8145 53.9375 43.4199 53.1113 46.8916 51.6611C47.5771 51.3799 48.2363 51.0547 48.8604 50.7031C49.3965 50.4043 49.8975 50.0703 50.3721 49.7188C50.5039 49.6221 50.627 49.5166 50.75 49.4199V52.5312ZM53.5625 47.4424C55.1533 47.0029 56.7705 46.6074 58.1416 46.0361C59.5742 45.4385 60.9014 44.7002 62 43.7949V46.9062C62 47.8291 61.5605 48.752 60.6904 49.6221C59.2578 51.0547 56.7354 52.2324 53.5449 52.9971C53.5537 52.8477 53.5625 52.6895 53.5625 52.5312V47.4424ZM33.875 62.375C38.8145 62.375 43.4199 61.5488 46.8916 60.0986C48.3242 59.501 49.6514 58.7627 50.75 57.8574V60.9688C50.75 64.8535 43.1914 68 33.875 68C24.5551 68 17 64.8535 17 60.9688V57.8574C18.0942 58.7627 19.4275 59.501 20.861 60.0986C24.3336 61.5488 28.9355 62.375 33.875 62.375Z" fill="white"/>
</g>
</g>
<defs>
<clipPath id="clip0_43_125">
<rect width="80" height="80" fill="white"/>
</clipPath>
<clipPath id="clip1_43_125">
<rect width="45" height="45" fill="white" transform="translate(17 23)"/>
</clipPath>
</defs>
</svg>
