<svg width="45" height="45" viewBox="0 0 45 45" fill="none" xmlns="http://www.w3.org/2000/svg">
<path d="M35.3571 9.76465C37.576 9.76465 39.375 8.19316 39.375 6.25166C39.375 4.31016 35.3571 0 35.3571 0C35.3571 0 31.3393 4.38662 31.3393 6.32812C31.3393 8.26963 33.1373 9.76465 35.3571 9.76465ZM22.5 9.76465C24.7189 9.76465 26.5179 8.19316 26.5179 6.25166C26.5179 4.31016 22.5 0 22.5 0C22.5 0 18.4821 4.38662 18.4821 6.32812C18.4821 8.26963 20.2801 9.76465 22.5 9.76465ZM38.481 19.6084L38.5714 14.0625C38.5714 13.2859 37.8518 12.6562 36.9643 12.6562H33.75C32.8661 12.6562 32.1429 13.2891 32.1429 14.0625V19.6875H25.7143V14.0625C25.7143 13.2859 24.9947 12.6562 24.1071 12.6562H20.8929C20.0089 12.6562 19.2857 13.2891 19.2857 14.0625V19.6875H12.8571V14.0625C12.8571 13.2859 12.1375 12.6562 11.25 12.6562H8.03571C7.14777 12.6562 6.42857 13.2891 6.42857 14.0625V19.6849C2.87779 19.6849 0 22.2029 0 25.2308V31.2688C0.985781 31.8052 2.14855 32.2646 3.21429 32.2646C5.2875 32.2646 7.7394 30.5306 8.50781 29.8626C9.1356 29.316 10.1491 29.316 10.7769 29.8626C11.4609 30.6123 14.0022 32.2646 16.0714 32.2646C18.1406 32.2646 20.5965 30.5306 21.365 29.8626C21.9927 29.316 23.0062 29.316 23.634 29.8626C24.3181 30.6123 26.8594 32.2646 28.9286 32.2646C30.9978 32.2646 33.4537 30.5306 34.2221 29.8626C34.8499 29.316 35.8634 29.316 36.4912 29.8626C37.1752 30.6123 39.7165 32.2646 41.7857 32.2646C42.8514 32.2646 44.0146 31.8052 45 31.2688V25.2334C45 22.2012 42.1172 19.6084 38.481 19.6084ZM35.3571 32.8096C33.976 33.772 31.5372 35.1527 28.9286 35.1527C26.32 35.1527 23.8811 33.7729 22.5 32.8096C21.1189 33.772 18.68 35.1527 16.0714 35.1527C13.4628 35.1527 11.024 33.7729 9.64286 32.8096C8.26172 33.772 5.82288 35.1527 3.21429 35.1527C2.08225 35.1527 0.995424 34.8784 0 34.5044V42.1842C0 43.7432 1.4394 45 3.21429 45H41.7857C43.5606 45 45 43.7405 45 42.1875V34.5076C44.0046 34.8817 42.9177 35.156 41.7857 35.156C39.1741 35.0771 36.7433 33.7764 35.3571 32.8096ZM9.64286 9.76465C11.8617 9.76465 13.6607 8.19316 13.6607 6.25166C13.6607 4.31016 9.64286 0 9.64286 0C9.64286 0 5.625 4.38662 5.625 6.32812C5.625 8.26963 7.424 9.76465 9.64286 9.76465Z" fill="white"/>
</svg>
