<svg width="50" height="50" viewBox="0 0 50 50" fill="none" xmlns="http://www.w3.org/2000/svg">
<path d="M21.2338 3.25977L21.0734 3.27393C14.3192 3.86934 9.00625 6.5957 5.73848 8.77803C2.19375 11.1454 0.261914 13.3537 0.181445 13.4466L0 13.656V36.3315V46.7402H10.4087H23.7613H38.9118H50V33.1738V18.8174V13.4074L21.2338 3.25977ZM1.48516 45.2551V37.85C5.40498 38.2044 8.53584 41.3353 8.89023 45.2551H1.48516V45.2551ZM38.0979 45.2551H24.5754C23.8743 44.0588 23.5055 42.7004 23.5055 41.3022C23.5055 36.9841 27.0185 33.4711 31.3366 33.4711C35.6548 33.4711 39.1678 36.9842 39.1678 41.3022C39.1678 42.7004 38.799 44.0587 38.0979 45.2551ZM48.5148 31.6406C45.7251 31.2757 43.5644 28.8833 43.5644 25.9958C43.5644 23.1082 45.7252 20.7158 48.5148 20.351V31.6406ZM48.5148 18.856C44.9044 19.2287 42.0792 22.2885 42.0792 25.9958C42.0792 29.7031 44.9044 32.7629 48.5148 33.1356V45.2552H39.7738C40.3514 44.0247 40.6529 42.6797 40.6529 41.3023C40.6529 36.1653 36.4736 31.986 31.3366 31.986C26.1996 31.986 22.0203 36.1653 22.0203 41.3023C22.0203 42.6798 22.3219 44.0247 22.8994 45.2552H10.3805C10.0187 40.516 6.22432 36.7216 1.48516 36.3599V14.6756H9.65352V13.1904H2.52783C3.42705 12.3535 4.8042 11.1841 6.60566 9.98486C9.6958 7.92793 14.6999 5.3623 21.0443 4.76787L44.9203 13.1904H30.5079C29.7561 10.6101 27.3712 8.71865 24.5514 8.71865C21.7315 8.71865 19.3467 10.6102 18.5948 13.1904H11.6338V14.6756H18.3531C18.3499 14.7579 18.3468 14.8401 18.3468 14.9232C18.3468 18.3444 21.1302 21.1278 24.5514 21.1278C27.9726 21.1278 30.756 18.3444 30.756 14.9232C30.756 14.8402 30.753 14.7579 30.7496 14.6756H48.5148V18.856ZM29.2708 14.923C29.2708 17.5253 27.1537 19.6425 24.5514 19.6425C21.9491 19.6425 19.8319 17.5254 19.8319 14.923C19.8319 12.3207 21.949 10.2036 24.5514 10.2036C27.1537 10.2037 29.2708 12.3208 29.2708 14.923Z" fill="#8B6AFF"/>
<path d="M31.3367 29.0156V30.5008C37.2926 30.5008 42.1381 35.3462 42.1381 41.3022H43.6233C43.6233 34.5273 38.1116 29.0156 31.3367 29.0156Z" fill="#8B6AFF"/>
<path d="M13.2179 23.669C10.7338 23.669 8.71289 25.6899 8.71289 28.174C8.71289 30.6581 10.7338 32.679 13.2179 32.679C15.702 32.679 17.7229 30.6581 17.7229 28.174C17.7229 25.6899 15.7019 23.669 13.2179 23.669ZM13.2179 31.1937C11.5527 31.1937 10.198 29.8391 10.198 28.1739C10.198 26.5088 11.5527 25.1541 13.2179 25.1541C14.883 25.1541 16.2377 26.5088 16.2377 28.1739C16.2376 29.8391 14.883 31.1937 13.2179 31.1937Z" fill="#8B6AFF"/>
</svg>
