<svg width="50" height="50" viewBox="0 0 50 50" fill="none" xmlns="http://www.w3.org/2000/svg">
<g clip-path="url(#clip0_179_53)">
<path d="M44.8319 7.21132H42.3776L29.317 1.98704C26.4114 0.824755 23.2112 0.824755 20.3056 1.98704L7.24495 7.21132H5.16847C3.72721 7.21132 2.341 7.81956 1.3651 8.8801C0.389316 9.94065 -0.101732 11.3727 0.0179563 12.8089L0.265602 15.7808C0.343617 16.7175 0.809966 17.5907 1.54507 18.1766C2.20978 18.7063 3.05456 18.9682 3.89825 18.9155L2.55045 42.5013C2.4547 44.177 3.03671 45.7721 4.18931 46.9923C5.3418 48.2126 6.90101 48.8847 8.57948 48.8847H41.0431C42.7216 48.8847 44.2808 48.2127 45.4332 46.9924C46.5858 45.7722 47.1677 44.1772 47.0721 42.5014L45.6972 18.4423L45.7415 18.4534C46.7724 18.7113 47.8444 18.484 48.682 17.8298C49.5197 17.1758 50.0001 16.1911 50.0001 15.1283V12.3797C50.0002 9.52979 47.6816 7.21132 44.8319 7.21132ZM20.9117 3.5024C23.4263 2.49658 26.1962 2.49658 28.7108 3.5024L37.9831 7.21132H11.6395L20.9117 3.5024ZM45.4426 42.5943C45.5125 43.8172 45.0878 44.9811 44.2467 45.8716C43.4056 46.7621 42.2679 47.2525 41.0431 47.2525H8.57948C7.35463 47.2525 6.21694 46.7621 5.37586 45.8716C4.53488 44.9811 4.1101 43.8172 4.17995 42.5943L5.54581 18.6919L12.7355 17.6648C13.2481 17.5915 13.7692 17.5834 14.2838 17.6406L27.7535 19.1373C28.0417 19.1693 28.3297 19.1853 28.617 19.1853C29.3055 19.1853 29.9895 19.0935 30.6597 18.9107L37.1976 17.1276C38.2118 16.851 39.2867 16.8397 40.3062 17.0945L44.0388 18.0277L45.4426 42.5943ZM48.3681 15.1283C48.3681 15.6849 48.1164 16.2008 47.6776 16.5433C47.2389 16.8858 46.6776 17.0052 46.1373 16.8699L40.7021 15.5112C39.4118 15.1884 38.0514 15.203 36.7682 15.5529L30.2303 17.3361C29.4798 17.5407 28.7072 17.6009 27.9339 17.5152L14.464 16.0185C14.1786 15.9868 13.8918 15.971 13.605 15.971C13.2371 15.971 12.8692 15.9971 12.5047 16.0491L3.93503 17.2733C3.44082 17.344 2.95293 17.2114 2.5622 16.9001C2.17147 16.5887 1.93351 16.143 1.89206 15.6451L1.82753 14.8708L10.2054 13.6741C12.4065 13.3596 14.6462 13.2866 16.8625 13.4572L24.7487 14.0638C25.1987 14.0988 25.5903 13.7621 25.6249 13.3127C25.6594 12.8633 25.3232 12.4711 24.8738 12.4365L16.9876 11.8299C14.6527 11.6501 12.2931 11.7271 9.9745 12.0584L1.69174 13.2417L1.64441 12.6735C1.56128 11.6763 1.88868 10.7217 2.56623 9.98537C3.24377 9.24896 4.16788 8.84354 5.16847 8.84354H44.8319C46.7817 8.84354 48.3681 10.43 48.3681 12.3798V15.1283V15.1283Z" fill="#8B6AFF"/>
<path d="M46.0671 12.5203L44.3262 11.6498C43.9233 11.4483 43.433 11.6116 43.2314 12.0147C43.0298 12.4179 43.1932 12.908 43.5963 13.1096L45.3372 13.98C45.4544 14.0387 45.5789 14.0663 45.7015 14.0663C46.0009 14.0663 46.2891 13.9009 46.4321 13.6151C46.6337 13.2119 46.4703 12.7218 46.0671 12.5203Z" fill="#8B6AFF"/>
<path d="M40.4794 10.6932H40.4398C38.6665 10.6932 36.8953 10.9112 35.175 11.3413L34.1882 11.588C33.7509 11.6973 33.4851 12.1404 33.5944 12.5776C33.6871 12.9484 34.0198 13.196 34.3855 13.196C34.451 13.196 34.5176 13.188 34.5841 13.1714L35.571 12.9246C37.1618 12.5269 38.7999 12.3252 40.4399 12.3252H40.4795C40.9302 12.3252 41.2955 11.9598 41.2955 11.5091C41.2955 11.0584 40.9301 10.6932 40.4794 10.6932Z" fill="#8B6AFF"/>
<path d="M40.8278 22.8716C40.8526 23.3057 41.2125 23.641 41.6418 23.641C41.6575 23.641 41.6733 23.6406 41.6891 23.6397C42.1392 23.6141 42.483 23.2284 42.4573 22.7784L42.3596 21.0686C42.3339 20.6187 41.9486 20.2746 41.4983 20.3004C41.0483 20.3261 40.7044 20.7117 40.7301 21.1618L40.8278 22.8716Z" fill="#8B6AFF"/>
<path d="M41.795 25.4925C41.345 25.5182 41.0012 25.9038 41.0269 26.3538L41.6734 37.6691C41.6982 38.1032 42.058 38.4385 42.4874 38.4385C42.5031 38.4385 42.5188 38.4381 42.5347 38.4372C42.9847 38.4116 43.3286 38.0259 43.3029 37.5759L42.6564 26.2607C42.6306 25.8108 42.2443 25.4676 41.795 25.4925Z" fill="#8B6AFF"/>
<path d="M29.5986 29.2992C29.8074 29.2992 30.0163 29.2196 30.1756 29.0602L32.3518 26.884C32.6705 26.5653 32.6705 26.0486 32.3518 25.73C32.0331 25.4113 31.5164 25.4113 31.1978 25.73L29.0216 27.9062C28.7029 28.2249 28.7029 28.7416 29.0216 29.0602C29.1809 29.2195 29.3898 29.2992 29.5986 29.2992Z" fill="#8B6AFF"/>
<path d="M27.9995 30.0823C27.6808 29.7636 27.1641 29.7636 26.8455 30.0823L16.8352 40.0926C16.5165 40.4113 16.5165 40.9281 16.8352 41.2467C16.9945 41.4059 17.2034 41.4857 17.4122 41.4857C17.621 41.4857 17.8299 41.4061 17.9892 41.2467L27.9995 31.2364C28.3182 30.9177 28.3182 30.4009 27.9995 30.0823Z" fill="#8B6AFF"/>
<path d="M21.3292 34.0868C21.7799 34.0868 22.1453 33.7214 22.1453 33.2707V30.6593C22.1453 30.2087 21.7799 29.8433 21.3292 29.8433C20.8786 29.8433 20.5132 30.2087 20.5132 30.6593V33.2707C20.5132 33.7214 20.8786 34.0868 21.3292 34.0868Z" fill="#8B6AFF"/>
<path d="M27.4224 35.9365H24.8111C24.3604 35.9365 23.995 36.3019 23.995 36.7526C23.995 37.2032 24.3604 37.5686 24.8111 37.5686H27.4224C27.8731 37.5686 28.2385 37.2032 28.2385 36.7526C28.2385 36.3019 27.8731 35.9365 27.4224 35.9365Z" fill="#8B6AFF"/>
<path d="M18.7179 36.6982C19.1686 36.6982 19.534 36.3328 19.534 35.8821V33.2707C19.534 32.82 19.1686 32.4547 18.7179 32.4547C18.2672 32.4547 17.9019 32.82 17.9019 33.2707V35.8821C17.9019 36.3328 18.2672 36.6982 18.7179 36.6982Z" fill="#8B6AFF"/>
<path d="M24.8111 38.5479H22.1997C21.749 38.5479 21.3837 38.9133 21.3837 39.364C21.3837 39.8146 21.749 40.18 22.1997 40.18H24.8111C25.2618 40.18 25.6272 39.8146 25.6272 39.364C25.6272 38.9133 25.2618 38.5479 24.8111 38.5479Z" fill="#8B6AFF"/>
<path d="M23.9406 31.4754C24.3912 31.4754 24.7566 31.11 24.7566 30.6593V28.048C24.7566 27.5973 24.3912 27.2319 23.9406 27.2319C23.4899 27.2319 23.1245 27.5973 23.1245 28.048V30.6593C23.1245 31.11 23.4899 31.4754 23.9406 31.4754Z" fill="#8B6AFF"/>
<path d="M30.0339 33.3251H27.4225C26.9718 33.3251 26.6064 33.6905 26.6064 34.1412C26.6064 34.5919 26.9718 34.9572 27.4225 34.9572H30.0339C30.4846 34.9572 30.8499 34.5919 30.8499 34.1412C30.8499 33.6905 30.4846 33.3251 30.0339 33.3251Z" fill="#8B6AFF"/>
<path d="M26.552 28.864C27.0027 28.864 27.3681 28.4986 27.3681 28.048V25.4366C27.3681 24.9859 27.0027 24.6205 26.552 24.6205C26.1013 24.6205 25.736 24.9859 25.736 25.4366V28.048C25.736 28.4986 26.1013 28.864 26.552 28.864Z" fill="#8B6AFF"/>
<path d="M32.6452 30.7137H30.0338C29.5831 30.7137 29.2178 31.0791 29.2178 31.5298C29.2178 31.9805 29.5831 32.3459 30.0338 32.3459H32.6452C33.0959 32.3459 33.4613 31.9805 33.4613 31.5298C33.4613 31.0791 33.0959 30.7137 32.6452 30.7137Z" fill="#8B6AFF"/>
</g>
<defs>
<clipPath id="clip0_179_53">
<rect width="50" height="50" fill="white"/>
</clipPath>
</defs>
</svg>
