<svg width="15" height="15" viewBox="0 0 15 15" fill="none" xmlns="http://www.w3.org/2000/svg">
<path d="M9.59304 4.6623L2.53167 11.7267C2.32668 11.9317 2.32668 12.2652 2.53167 12.4702C2.63263 12.5712 2.76725 12.6232 2.90187 12.6232C3.03649 12.6232 3.17111 12.5712 3.27207 12.4702L10.3334 5.40883C10.5384 5.20384 10.5384 4.87035 10.3334 4.66536C10.1315 4.45731 9.79803 4.45731 9.59304 4.6623Z" fill="#8B6AFF"/>
<path d="M13.1911 5.87081C13.3257 5.87081 13.4604 5.8188 13.5613 5.71784L14.3323 4.94684C15.2226 4.05652 15.2226 2.60937 14.3323 1.72211L13.2798 0.66963C12.8485 0.238238 12.2763 0.00265503 11.6675 0.00265503C11.0586 0.00265503 10.4865 0.241298 10.0551 0.66963L9.28411 1.44063C9.07912 1.64562 9.07912 1.9791 9.28411 2.18409L12.8209 5.7209C12.9219 5.8188 13.0565 5.87081 13.1911 5.87081ZM10.7986 1.40697C11.0311 1.17445 11.3401 1.04595 11.6705 1.04595C11.9979 1.04595 12.31 1.17445 12.5425 1.40697L13.595 2.45945C14.0753 2.93979 14.0753 3.71997 13.595 4.20032L13.1911 4.60417L10.3947 1.80777L10.7986 1.40697Z" fill="#8B6AFF"/>
<path d="M4.98238 14.2937L12.4323 6.84374C12.6373 6.63875 12.6373 6.30526 12.4323 6.10028C12.2273 5.89529 11.8938 5.89529 11.6888 6.10028L4.36742 13.4278L1.13656 13.8623L1.57101 10.6314L8.56508 3.63736C8.77006 3.43237 8.77006 3.09889 8.56508 2.8939C8.36009 2.68891 8.0266 2.68891 7.82161 2.8939L0.70517 10.0165C0.622563 10.0991 0.570552 10.2031 0.555254 10.3163L0.00454038 14.4038C-0.0168763 14.566 0.0381951 14.7281 0.154457 14.8444C0.252361 14.9423 0.38698 14.9974 0.524659 14.9974C0.549135 14.9974 0.570552 14.9943 0.595028 14.9912L4.68255 14.4405C4.79575 14.4283 4.90283 14.3763 4.98238 14.2937Z" fill="#8B6AFF"/>
</svg>
