<svg width="45" height="45" viewBox="0 0 45 45" fill="none" xmlns="http://www.w3.org/2000/svg">
<path d="M43.8691 14.4143C44.8964 15.1702 45.3537 16.884 44.6853 18.2375C44.1435 19.5207 42.7715 20.092 41.688 19.2571L22.4517 6.0304L3.34484 19.2571C2.25778 20.092 0.887178 19.5207 0.283141 18.2375C-0.320755 16.884 0.070866 15.1702 1.15806 14.4143L21.4244 0.354158C22.0999 -0.117727 22.9301 -0.117727 23.6056 0.354158L43.8691 14.4143ZM19.6373 17.5784C19.6373 15.636 20.9601 14.0627 22.4517 14.0627C24.07 14.0627 25.2661 15.636 25.2661 17.5784C25.2661 19.5207 24.07 21.094 22.4517 21.094C20.9601 21.094 19.6373 19.5207 19.6373 17.5784ZM7.25402 26.0159C7.25402 24.0735 8.57678 22.5002 10.0684 22.5002C11.6867 22.5002 12.8828 24.0735 12.8828 26.0159C12.8828 27.9582 11.6867 29.5315 10.0684 29.5315C8.57678 29.5315 7.25402 27.9582 7.25402 26.0159ZM37.6494 26.0159C37.6494 27.9582 36.4532 29.5315 34.835 29.5315C33.3433 29.5315 32.0206 27.9582 32.0206 26.0159C32.0206 24.0735 33.3433 22.5002 34.835 22.5002C36.4532 22.5002 37.6494 24.0735 37.6494 26.0159ZM15.9645 43.1897L14.0085 38.804V42.1877C14.0085 43.7434 13.0657 45.0002 11.757 45.0002H8.37977C7.19773 45.0002 6.12826 43.7434 6.12826 42.1877V38.804L4.30102 43.1897C3.85846 44.2092 2.83473 44.5959 2.01363 44.0422C1.19254 43.4885 0.885067 42.2141 1.32763 41.1858L3.99215 35.0071C5.07217 32.5022 7.16958 30.9377 9.4422 30.9377H10.8212C11.9681 30.9377 13.0657 31.3332 14.0156 32.0452L16.3726 26.5696C17.4562 24.0647 19.5529 22.4211 21.8255 22.4211H23.2045C25.4771 22.4211 27.5739 24.0647 28.6574 26.5696L31.0144 32.0452C31.9643 31.3332 33.0619 30.9377 34.2088 30.9377H35.5878C37.8604 30.9377 39.9571 32.5022 41.0407 35.0071L43.7003 41.1858C44.1435 42.2141 43.834 43.4885 43.0178 44.0422C42.1946 44.5959 41.1744 44.2092 40.7311 43.1897L38.7751 38.804V42.1877C38.7751 43.7434 37.8323 45.0002 36.5236 45.0002H33.1463C31.9643 45.0002 30.8948 43.7434 30.8948 42.1877V38.804L29.0655 43.1897C28.6222 44.2092 27.602 44.5959 26.7788 44.0422C25.8993 43.4885 25.653 42.2141 26.0963 41.1858L28.6504 35.2532C28.5308 35.1125 28.4252 34.9456 28.3478 34.7522L26.3918 30.3664V35.1565C26.3918 36.7122 25.449 37.969 24.1403 37.969H20.7631C19.581 37.969 18.5115 36.7122 18.5115 35.1565V30.3664L16.6822 34.7522C16.5415 34.9456 16.4993 35.1125 16.3797 35.2532L18.9337 41.1858C19.377 42.2141 19.0674 43.4885 18.2512 44.0422C17.428 44.5959 16.4078 44.2092 15.9645 43.1897Z" fill="white"/>
</svg>
