<svg width="50" height="50" viewBox="0 0 50 50" fill="none" xmlns="http://www.w3.org/2000/svg">
<path d="M49.7558 24.525C47.6921 20.51 44.5734 17.124 40.737 14.7328C36.7915 12.2736 32.237 10.9738 27.5657 10.9738C21.2601 10.9738 15.3274 13.2905 10.7187 17.5252C8.59678 14.4877 5.25679 12.4609 1.55327 12.02L0.654346 11.913L0.425252 12.7887C0.143067 13.8674 0 14.9832 0 16.1052C0 19.4084 1.26163 22.5931 3.49334 25C1.26163 27.4069 0 30.5917 0 33.8948C0 35.0169 0.143067 36.1326 0.425148 37.2112L0.654242 38.0869L1.55316 37.9799C5.25669 37.539 8.59668 35.5123 10.7186 32.4747C15.3273 36.7095 21.26 39.0262 27.5656 39.0262C32.237 39.0262 36.7915 37.7263 40.7369 35.2671C44.5733 32.8761 47.6919 29.4899 49.7557 25.4749L50 24.9999L49.7558 24.525ZM27.5656 36.9482C21.384 36.9482 15.5932 34.5191 11.26 30.1083L10.2858 29.1167L9.61061 30.3317C8.05174 33.1368 5.34022 35.1184 2.2366 35.7647C2.13125 35.1491 2.07795 34.5232 2.07795 33.8948C2.07795 30.8101 3.38633 27.8478 5.6676 25.7678L6.50959 25L5.6676 24.2322C3.38633 22.1522 2.07795 19.1901 2.07795 16.1052C2.07795 15.4768 2.13125 14.8509 2.2366 14.2353C5.34022 14.8815 8.05174 16.8631 9.61061 19.6683L10.2858 20.8833L11.26 19.8917C15.5932 15.4809 21.384 13.0518 27.5656 13.0518C35.995 13.0518 43.6439 17.6157 47.6566 25C43.6439 32.3843 35.995 36.9482 27.5656 36.9482Z" fill="#8B6AFF"/>
<path d="M28.598 17.2077H26.52V32.7923H28.598V17.2077Z" fill="#8B6AFF"/>
<path d="M22.3641 18.2692H20.2861V31.7307H22.3641V18.2692Z" fill="#8B6AFF"/>
<path d="M34.8319 18.2672H32.7539V31.733H34.8319V18.2672Z" fill="#8B6AFF"/>
<path d="M41.0656 22.9221C39.9198 22.9221 38.9877 23.8542 38.9877 25C38.9877 26.1458 39.9198 27.078 41.0656 27.078C42.2114 27.078 43.1436 26.1458 43.1436 25C43.1436 23.8542 42.2114 22.9221 41.0656 22.9221Z" fill="#8B6AFF"/>
<path d="M16.1303 21.9772H14.0524V28.0228H16.1303V21.9772Z" fill="#8B6AFF"/>
</svg>
