<svg width="50" height="50" viewBox="0 0 50 50" fill="none" xmlns="http://www.w3.org/2000/svg">
<path d="M6.25 14.5833L13.5417 18.75M43.75 35.4167L36.4583 31.25M25 25L13.5417 18.75M25 25L13.5417 31.25M25 25V10.4167M25 25V38.5417M25 25L36.4583 31.25M25 25L36.4583 18.75M25 4.16666V10.4167M25 45.8333V38.5417M43.75 14.5833L36.4583 18.75M6.25 35.4167L13.5417 31.25M13.5417 18.75L6.25 20.8333M13.5417 18.75L12.5 11.4583M13.5417 31.25L6.25 29.1667M13.5417 31.25L12.5 38.5417M25 10.4167L19.7917 8.33332M25 10.4167L30.2083 8.33332M25 38.5417L30.2083 41.6667M25 38.5417L19.7917 41.6667M36.4583 31.25L37.5 38.5417M36.4583 31.25L43.75 29.1667M36.4583 18.75L43.75 20.8333M36.4583 18.75L37.5 11.4583" stroke="#8B6AFF" stroke-width="2" stroke-linecap="round" stroke-linejoin="round"/>
</svg>
