<svg width="50" height="50" viewBox="0 0 50 50" fill="none" xmlns="http://www.w3.org/2000/svg">
<g clip-path="url(#clip0_178_109)">
<mask id="path-1-inside-1_178_109" fill="white">
<path d="M49.8733 29.3705C49.8109 29.2652 49.7287 29.1797 49.6374 29.1091C49.5813 28.9442 49.4968 28.7907 49.3588 28.6778C49.1409 28.4997 48.8522 28.4264 48.5784 28.485C48.5203 28.4947 42.8482 29.5892 36.2131 26.0439C34.9598 25.3741 33.7592 24.2535 32.5955 22.8888L32.5463 22.7657L32.5036 22.7827C31.4368 21.518 30.4012 20.0496 29.3838 18.5347L28.7399 17.1183L28.5111 17.222C28.367 17.0033 28.2229 16.7844 28.0793 16.5662C24.5982 11.2726 21.3104 6.27261 16.8957 6.27261C12.2392 6.27261 3.10755 12.7314 0.64686 20.6899C-0.757399 25.2315 -0.559255 31.9253 8.3595 38.0231C14.5933 42.2851 21.0663 43.7274 26.9769 43.7274C39.2755 43.7274 49.1307 37.4786 49.2758 37.3848C49.5427 37.2117 49.7038 36.9157 49.7038 36.5978V30.5119C50.0101 30.2171 50.0996 29.7523 49.8733 29.3705ZM16.8957 8.14775C19.1785 8.14775 21.351 10.3124 23.456 13.1371L9.21728 19.7817L10.0101 21.4807L24.5662 14.688C25.2205 15.6346 25.8692 16.618 26.5129 17.5968C26.6027 17.7335 26.6933 17.8708 26.7833 18.0078L16.7214 22.5813L17.4972 24.2882L27.8339 19.5896C28.7559 20.9624 29.6971 22.304 30.677 23.5137L21.4317 27.2117L22.1278 28.9524L31.984 25.01C33.0425 26.1309 34.1502 27.0668 35.3302 27.6973C35.5912 27.8368 35.8492 27.9637 36.1073 28.0903L29.0126 29.8642L29.4678 31.6832L38.7861 29.3535L38.7488 29.204C41.4549 30.1625 43.8536 30.4741 45.6453 30.5281C38.2097 33.8588 18.2971 40.1375 2.49104 21.1968C2.48318 21.1874 2.47151 21.1836 2.46339 21.1745C4.83401 13.6453 13.3438 8.14775 16.8957 8.14775ZM47.829 36.0703C44.7858 37.8559 26.1229 47.8983 9.41771 36.4755C3.93108 32.7242 1.39402 28.2539 1.96968 23.4396C10.5759 33.1522 20.3593 35.9861 28.8115 35.9861C37.4331 35.9861 44.6625 33.0591 47.829 31.5424V36.0703Z"/>
</mask>
<path d="M49.8733 29.3705L51.5938 28.3507L51.5938 28.3506L49.8733 29.3705ZM49.6374 29.1091L47.7438 29.7529L47.9379 30.3237L48.415 30.6921L49.6374 29.1091ZM49.3588 28.6778L50.6251 27.1298L50.6244 27.1292L49.3588 28.6778ZM48.5784 28.485L48.9058 30.458L48.9516 30.4504L48.9971 30.4407L48.5784 28.485ZM36.2131 26.0439L35.2704 27.8078L35.2705 27.8079L36.2131 26.0439ZM32.5955 22.8888L30.7385 23.6316L30.8605 23.9366L31.0737 24.1865L32.5955 22.8888ZM32.5463 22.7657L34.4032 22.023L33.6612 20.1679L31.8054 20.908L32.5463 22.7657ZM32.5036 22.7827L30.9749 24.0723L31.9048 25.1747L33.2445 24.6405L32.5036 22.7827ZM29.3838 18.5347L27.5631 19.3624L27.6314 19.5127L27.7235 19.6497L29.3838 18.5347ZM28.7399 17.1183L30.5606 16.2906L29.7337 14.4716L27.914 15.2968L28.7399 17.1183ZM28.5111 17.222L26.841 18.3225L27.7811 19.7491L29.337 19.0435L28.5111 17.222ZM28.0793 16.5662L26.4082 17.6651L26.4086 17.6657L28.0793 16.5662ZM0.64686 20.6899L2.55761 21.2807L2.55761 21.2807L0.64686 20.6899ZM8.3595 38.0231L7.2307 39.6741L7.23072 39.6741L8.3595 38.0231ZM49.2758 37.3848L50.3621 39.0641L50.3638 39.063L49.2758 37.3848ZM49.7038 30.5119L48.3167 29.0711L47.7038 29.6611V30.5119H49.7038ZM23.456 13.1371L24.3017 14.9495L26.527 13.9111L25.0597 11.9421L23.456 13.1371ZM9.21728 19.7817L8.37153 17.9693L6.55919 18.815L7.40489 20.6274L9.21728 19.7817ZM10.0101 21.4807L8.19772 22.3264L9.04345 24.1389L10.8559 23.2931L10.0101 21.4807ZM24.5662 14.688L26.2114 13.5508L25.251 12.1614L23.7204 12.8756L24.5662 14.688ZM26.5129 17.5968L28.1846 16.4988L28.1839 16.4979L26.5129 17.5968ZM26.7833 18.0078L27.6109 19.8285L29.7381 18.8616L28.4545 16.9091L26.7833 18.0078ZM16.7214 22.5813L15.8938 20.7606L14.0731 21.5881L14.9006 23.4089L16.7214 22.5813ZM17.4972 24.2882L15.6765 25.1158L16.5041 26.9366L18.3248 26.109L17.4972 24.2882ZM27.8339 19.5896L29.4942 18.4745L28.5493 17.0675L27.0063 17.7689L27.8339 19.5896ZM30.677 23.5137L31.4197 25.3706L33.9387 24.3631L32.2311 22.2548L30.677 23.5137ZM21.4317 27.2117L20.6889 25.3547L18.832 26.0975L19.5747 27.9544L21.4317 27.2117ZM22.1278 28.9524L20.2709 29.695L21.0136 31.5521L22.8706 30.8093L22.1278 28.9524ZM31.984 25.01L33.4382 23.6369L32.5042 22.6479L31.2413 23.1531L31.984 25.01ZM35.3302 27.6973L36.2729 25.9334L36.2727 25.9333L35.3302 27.6973ZM36.1073 28.0903L36.5924 30.0305L41.8982 28.7039L36.9883 26.2947L36.1073 28.0903ZM29.0126 29.8642L28.5275 27.9239L26.5869 28.4091L27.0725 30.3496L29.0126 29.8642ZM29.4678 31.6832L27.5276 32.1687L28.013 34.1085L29.9529 33.6235L29.4678 31.6832ZM38.7861 29.3535L39.2712 31.2937L41.2107 30.8088L40.7266 28.8692L38.7861 29.3535ZM38.7488 29.204L39.4166 27.3188L35.9067 26.0755L36.8084 29.6883L38.7488 29.204ZM45.6453 30.5281L46.4629 32.3534L45.7056 28.529L45.6453 30.5281ZM2.49104 21.1968L4.0266 19.9154L4.02409 19.9124L2.49104 21.1968ZM2.46339 21.1745L0.555715 20.5739L0.215122 21.6556L0.968572 22.5032L2.46339 21.1745ZM47.829 36.0703L48.8411 37.7953L49.829 37.2157V36.0703H47.829ZM9.41771 36.4755L10.5466 34.8245L10.5465 34.8245L9.41771 36.4755ZM1.96968 23.4396L3.46658 22.1132L0.512648 18.7795L-0.0161743 23.2021L1.96968 23.4396ZM47.829 31.5424H49.829V28.3669L46.965 29.7387L47.829 31.5424ZM51.5938 28.3506C51.3785 27.9874 51.1103 27.7197 50.8598 27.5262L48.415 30.6921C48.3471 30.6397 48.2433 30.5429 48.1529 30.3903L51.5938 28.3506ZM51.5309 28.4653C51.4039 28.0917 51.1521 27.5609 50.6251 27.1298L48.0925 30.2259C47.8415 30.0206 47.7587 29.7968 47.7438 29.7529L51.5309 28.4653ZM50.6244 27.1292C49.9518 26.5795 49.0472 26.3393 48.1597 26.5293L48.9971 30.4407C48.6571 30.5135 48.3299 30.4199 48.0932 30.2265L50.6244 27.1292ZM48.251 26.512C48.2416 26.5136 47.952 26.5706 47.4044 26.6119C46.8477 26.6539 46.0267 26.6789 45.011 26.6031C42.9804 26.4515 40.1842 25.8981 37.1556 24.2799L35.2705 27.8079C38.8771 29.7349 42.2344 30.4069 44.7132 30.592C45.9522 30.6845 46.9749 30.6557 47.7054 30.6005C48.0709 30.573 48.3641 30.5387 48.5756 30.5096C48.7855 30.4807 48.9334 30.4535 48.9058 30.458L48.251 26.512ZM37.1557 24.28C36.2233 23.7817 35.2142 22.8774 34.1173 21.5911L31.0737 24.1865C32.3043 25.6296 33.6962 26.9665 35.2704 27.8078L37.1557 24.28ZM34.4524 22.146L34.4032 22.023L30.6893 23.5085L30.7385 23.6316L34.4524 22.146ZM31.8054 20.908L31.7627 20.925L33.2445 24.6405L33.2871 24.6235L31.8054 20.908ZM34.0324 21.4932C33.0379 20.3142 32.0511 18.919 31.0441 17.4197L27.7235 19.6497C28.7513 21.1802 29.8357 22.7218 30.9749 24.0723L34.0324 21.4932ZM31.2045 17.707L30.5606 16.2906L26.9192 17.9459L27.5631 19.3624L31.2045 17.707ZM27.914 15.2968L27.6851 15.4005L29.337 19.0435L29.5658 18.9398L27.914 15.2968ZM30.1811 16.1216C30.0373 15.9034 29.8935 15.6849 29.7499 15.4667L26.4086 17.6657C26.5522 17.8839 26.6966 18.1032 26.841 18.3225L30.1811 16.1216ZM29.7503 15.4673C28.0382 12.8637 26.2454 10.1259 24.2903 8.0597C22.3372 5.99562 19.9188 4.27261 16.8957 4.27261V8.27261C18.2873 8.27261 19.7201 9.04962 21.3849 10.8089C23.0476 12.5662 24.6393 14.9751 26.4082 17.6651L29.7503 15.4673ZM16.8957 4.27261C15.3204 4.27261 13.5715 4.8029 11.886 5.59686C10.1694 6.40553 8.37568 7.55529 6.67734 8.95222C3.30762 11.7239 0.116488 15.6347 -1.26389 20.0991L2.55761 21.2807C3.63792 17.7867 6.24295 14.4888 9.21833 12.0415C10.6925 10.8289 12.2086 9.86652 13.5907 9.21545C15.004 8.54968 16.1427 8.27261 16.8957 8.27261V4.27261ZM-1.26389 20.0991C-2.05528 22.6586 -2.41773 25.9053 -1.26763 29.3984C-0.114161 32.9017 2.48791 36.4314 7.2307 39.6741L9.4883 36.3721C5.31234 33.5169 3.35596 30.6508 2.53173 28.1475C1.70413 25.6338 1.94474 23.2628 2.55761 21.2807L-1.26389 20.0991ZM7.23072 39.6741C13.8467 44.1974 20.7282 45.7274 26.9769 45.7274V41.7274C21.4045 41.7274 15.3399 40.3728 9.48829 36.3721L7.23072 39.6741ZM26.9769 45.7274C39.8653 45.7274 50.1236 39.2183 50.3621 39.0641L48.1896 35.7055C48.2025 35.6971 45.8223 37.2144 41.9547 38.729C38.083 40.2451 32.7994 41.7274 26.9769 41.7274V45.7274ZM50.3638 39.063C51.1985 38.5218 51.7038 37.5945 51.7038 36.5978H47.7038C47.7038 36.2368 47.8869 35.9017 48.1879 35.7066L50.3638 39.063ZM51.7038 36.5978V30.5119H47.7038V36.5978H51.7038ZM51.0909 31.9527C52.0029 31.0748 52.3363 29.6034 51.5938 28.3507L48.1528 30.3902C47.863 29.9012 48.0173 29.3594 48.3167 29.0711L51.0909 31.9527ZM16.8957 10.1478C17.3875 10.1478 18.0624 10.3826 18.9751 11.1303C19.8798 11.8714 20.8349 12.9669 21.8523 14.3322L25.0597 11.9421C23.9721 10.4826 22.7885 9.0834 21.51 8.03602C20.2394 6.9952 18.6867 6.14775 16.8957 6.14775V10.1478ZM22.6102 11.3247L8.37153 17.9693L10.063 21.594L24.3017 14.9495L22.6102 11.3247ZM7.40489 20.6274L8.19772 22.3264L11.8225 20.635L11.0297 18.936L7.40489 20.6274ZM10.8559 23.2931L25.412 16.5004L23.7204 12.8756L9.16435 19.6684L10.8559 23.2931ZM22.921 15.8252C23.5605 16.7504 24.1974 17.7157 24.8418 18.6956L28.1839 16.4979C27.541 15.5202 26.8805 14.5188 26.2114 13.5508L22.921 15.8252ZM24.8412 18.6947C24.9294 18.829 25.0265 18.9762 25.1121 19.1064L28.4545 16.9091C28.36 16.7653 28.276 16.638 28.1846 16.4988L24.8412 18.6947ZM25.9557 16.187L15.8938 20.7606L17.549 24.402L27.6109 19.8285L25.9557 16.187ZM14.9006 23.4089L15.6765 25.1158L19.318 23.4607L18.5421 21.7537L14.9006 23.4089ZM18.3248 26.109L28.6616 21.4103L27.0063 17.7689L16.6696 22.4675L18.3248 26.109ZM26.1736 20.7047C27.1067 22.0941 28.0869 23.4935 29.1228 24.7725L32.2311 22.2548C31.3074 21.1145 30.4051 19.8307 29.4942 18.4745L26.1736 20.7047ZM29.9342 21.6567L20.6889 25.3547L22.1744 29.0686L31.4197 25.3706L29.9342 21.6567ZM19.5747 27.9544L20.2709 29.695L23.9848 28.2097L23.2887 26.469L19.5747 27.9544ZM22.8706 30.8093L32.7268 26.867L31.2413 23.1531L21.3851 27.0954L22.8706 30.8093ZM30.5299 26.3832C31.6747 27.5955 32.9512 28.6938 34.3877 29.4613L36.2727 25.9333C35.3492 25.4399 34.4103 24.6663 33.4382 23.6369L30.5299 26.3832ZM34.3874 29.4611C34.6835 29.6194 34.9714 29.7607 35.2263 29.8858L36.9883 26.2947C36.7271 26.1666 36.499 26.0542 36.2729 25.9334L34.3874 29.4611ZM35.6221 26.15L28.5275 27.9239L29.4978 31.8044L36.5924 30.0305L35.6221 26.15ZM27.0725 30.3496L27.5276 32.1687L31.408 31.1978L30.9528 29.3787L27.0725 30.3496ZM29.9529 33.6235L39.2712 31.2937L38.301 27.4132L28.9827 29.743L29.9529 33.6235ZM40.7266 28.8692L40.6893 28.7197L36.8084 29.6883L36.8457 29.8378L40.7266 28.8692ZM38.0811 31.0893C41.0097 32.1266 43.6172 32.4679 45.585 32.5272L45.7056 28.529C44.0901 28.4803 41.9 28.1984 39.4166 27.3188L38.0811 31.0893ZM44.8277 28.7029C41.2588 30.3015 34.7505 32.577 27.3038 32.2165C19.9391 31.8601 11.5464 28.9264 4.0266 19.9154L0.955489 22.4783C9.2418 32.4078 18.7084 35.8052 27.1104 36.2119C35.4304 36.6146 42.5963 34.0854 46.4629 32.3534L44.8277 28.7029ZM4.02409 19.9124C3.90813 19.774 3.79501 19.6765 3.71656 19.6152C3.67762 19.5847 3.64458 19.5612 3.62296 19.5461C3.60259 19.532 3.5856 19.5207 3.58431 19.5199C3.5816 19.5181 3.58448 19.52 3.58661 19.5214C3.58955 19.5234 3.5956 19.5274 3.60331 19.5327C3.61836 19.543 3.64532 19.5618 3.67821 19.5867C3.74421 19.6367 3.84822 19.722 3.95821 19.8458L0.968572 22.5032C1.02582 22.5676 1.08138 22.6219 1.13146 22.6668C1.18123 22.7114 1.22616 22.7473 1.26185 22.7744C1.27979 22.788 1.29592 22.7997 1.30957 22.8095C1.32317 22.8192 1.33493 22.8273 1.34396 22.8335C1.35288 22.8396 1.36016 22.8445 1.36433 22.8473C1.36646 22.8487 1.36821 22.8499 1.36914 22.8505C1.36961 22.8508 1.37001 22.8511 1.37018 22.8512C1.37043 22.8514 1.37037 22.8513 1.37032 22.8513C1.37019 22.8512 1.36921 22.8505 1.36788 22.8497C1.3665 22.8487 1.3644 22.8473 1.36182 22.8456C1.35676 22.8422 1.34878 22.8368 1.339 22.83C1.3198 22.8166 1.28915 22.7948 1.25253 22.7662C1.17874 22.7084 1.07003 22.615 0.958003 22.4813L4.02409 19.9124ZM4.37107 21.7752C5.40139 18.5028 7.82025 15.5518 10.493 13.3937C11.8168 12.3249 13.1549 11.4902 14.3328 10.9313C15.5576 10.3503 16.4402 10.1478 16.8957 10.1478V6.14775C15.5752 6.14775 14.0621 6.63244 12.6183 7.31743C11.1275 8.02468 9.52409 9.03494 7.98013 10.2816C4.91736 12.7546 1.89601 16.317 0.555715 20.5739L4.37107 21.7752ZM46.8168 34.3453C45.3977 35.178 40.2001 38.0115 33.3865 39.2587C26.5983 40.5013 18.3379 40.1521 10.5466 34.8245L8.28882 38.1264C17.2027 44.2216 26.6264 44.5627 34.1067 43.1934C41.5617 41.8287 47.217 38.7482 48.8411 37.7953L46.8168 34.3453ZM10.5465 34.8245C5.41972 31.3192 3.49989 27.4877 3.95553 23.677L-0.0161743 23.2021C-0.711845 29.0201 2.44243 34.1292 8.2889 38.1265L10.5465 34.8245ZM0.472779 24.766C9.50622 34.9607 19.8629 37.9861 28.8115 37.9861V33.9861C20.8556 33.9861 11.6455 31.3436 3.46658 22.1132L0.472779 24.766ZM28.8115 37.9861C37.8547 37.9861 45.3948 34.9259 48.6929 33.3462L46.965 29.7387C43.9301 31.1923 37.0116 33.9861 28.8115 33.9861V37.9861ZM45.829 31.5424V36.0703H49.829V31.5424H45.829Z" fill="#8B6AFF" mask="url(#path-1-inside-1_178_109)"/>
</g>
<defs>
<clipPath id="clip0_178_109">
<rect width="50" height="50" fill="white"/>
</clipPath>
</defs>
</svg>
