<svg width="45" height="45" viewBox="0 0 45 45" fill="none" xmlns="http://www.w3.org/2000/svg">
<g clip-path="url(#clip0_43_129)">
<path d="M13.4141 16.7957H31.5859L25.2109 3.08216C24.7344 2.04856 25.0938 0.775115 26.0078 0.237664C26.9297 -0.299787 28.0625 0.102401 28.5391 1.13626L35.8125 16.7957H42.5C43.8828 16.7957 45 18.1317 45 19.6082C45 21.243 43.8828 22.4207 42.5 22.4207L38.4453 40.7371C37.8203 43.242 35.8906 44.9998 33.5938 44.9998H11.3359C9.10938 44.9998 7.10938 43.242 6.55312 40.7371L2.5 22.4207C1.11953 22.4207 0 21.243 0 19.6082C0 18.1317 1.11953 16.7957 2.5 16.7957H9.1875L16.4609 1.13626C16.9375 0.102401 18.0703 -0.299787 18.9922 0.237664C19.9062 0.775115 20.2656 2.04856 19.7891 3.08216L13.4141 16.7957ZM14.9297 26.6395C14.9297 25.9364 14.4375 25.2332 13.6797 25.2332C13.0625 25.2332 12.4297 25.9364 12.4297 26.6395V35.077C12.4297 35.9295 13.0625 36.4832 13.6797 36.4832C14.4375 36.4832 14.9297 35.9295 14.9297 35.077V26.6395ZM21.1797 26.6395V35.077C21.1797 35.9295 21.8125 36.4832 22.4297 36.4832C23.1875 36.4832 23.75 35.9295 23.75 35.077V26.6395C23.75 25.9364 23.1875 25.2332 22.4297 25.2332C21.8125 25.2332 21.1797 25.9364 21.1797 26.6395ZM32.5 26.6395C32.5 25.9364 31.9375 25.2332 31.25 25.2332C30.5625 25.2332 30 25.9364 30 26.6395V35.077C30 35.9295 30.5625 36.4832 31.25 36.4832C31.9375 36.4832 32.5 35.9295 32.5 35.077V26.6395Z" fill="white"/>
</g>
<defs>
<clipPath id="clip0_43_129">
<rect width="45" height="45" fill="white"/>
</clipPath>
</defs>
</svg>
