<svg width="45" height="40" viewBox="0 0 45 40" fill="none" xmlns="http://www.w3.org/2000/svg">
<g clip-path="url(#clip0_45_151)">
<path d="M43.75 35.8889H37.5V4.85373C37.5 2.66623 35.8203 0.888889 33.75 0.888889H11.25C9.17969 0.888889 7.5 2.66623 7.5 4.85373V35.8889H1.25C0.556641 35.8889 0 36.4436 0 37.1389V39.6389C0 40.3342 0.556641 40.8889 1.25 40.8889H43.75C44.4434 40.8889 45 40.3322 45 39.6389V37.1389C45 36.4436 44.4453 35.8889 43.75 35.8889ZM30 23.3889C28.6234 23.3889 27.5 22.2655 27.5 20.8889C27.5 19.5123 28.6234 18.3889 30 18.3889C31.3766 18.3889 32.5 19.5123 32.5 20.8889C32.5 22.2655 31.375 23.3889 30 23.3889Z" fill="white"/>
</g>
<defs>
<clipPath id="clip0_45_151">
<rect width="45" height="40" fill="white"/>
</clipPath>
</defs>
</svg>
