<svg width="50" height="50" viewBox="0 0 50 50" fill="none" xmlns="http://www.w3.org/2000/svg">
<g clip-path="url(#clip0_178_106)">
<path d="M27.3238 9.75837L27.3281 9.72721L27.3305 9.69583C27.4795 7.73263 28.1419 5.6298 29.2583 3.98099C30.3604 2.35335 31.8523 1.2348 33.6846 1.00682C34.5539 1.00109 35.4412 1.35581 36.1567 1.97338C37.5223 3.2024 38.2365 4.94315 38.4437 6.88918C38.6513 8.83893 38.3399 10.929 37.7211 12.7314C37.2069 14.1374 36.3287 15.5612 35.2184 16.5832C34.1277 17.5872 32.8792 18.1498 31.5513 18.0521C29.9919 17.6879 28.8294 16.5517 28.0932 14.9908C27.343 13.4003 27.0866 11.4585 27.3238 9.75837ZM12.2136 3.52779C12.9972 2.19363 14.1292 1.31945 15.5488 1.20814C15.8272 1.20313 16.1124 1.24038 16.3938 1.31708C18.5031 1.95582 20.0771 3.56133 21.0872 5.65201C22.1018 7.75194 22.5071 10.2701 22.3024 12.5464L22.3014 12.5577L22.3006 12.5691C22.2064 13.9749 21.648 15.4844 20.7579 16.5769C19.8931 17.6383 18.7872 18.2349 17.5146 18.1193C15.5583 17.6352 13.9933 16.2849 12.8933 14.4643C11.7789 12.6197 11.1817 10.3496 11.1671 8.21204L11.1669 8.17822L11.1644 8.1445C11.0501 6.61148 11.4192 4.88037 12.2136 3.52779ZM37.8835 25.5194L37.8851 25.5002L37.886 25.4809C37.9853 23.2791 38.7622 20.9556 40.0714 19.1589C41.3636 17.3854 43.1219 16.1874 45.2118 16.0148C46.2937 16.076 47.2067 16.6831 47.8884 17.6522C48.5888 18.648 48.9875 19.9581 49.0016 21.1796L49.0015 21.1796L49.0019 21.1937C49.0596 23.4427 48.3838 25.8752 47.1196 27.7902C45.8635 29.6927 44.0834 31.0099 41.9343 31.2453C40.7067 31.3152 39.6704 30.6599 38.9183 29.531C38.1525 28.3816 37.7717 26.8519 37.8835 25.5194ZM1.03467 21.5455L1.03935 21.4915L1.03818 21.4374C1.0133 20.2889 1.44642 19.1897 2.23735 18.4458C3.00869 17.7202 4.19491 17.2623 5.83912 17.5155C7.41265 17.7578 8.89853 18.8267 10.0521 20.4413C11.201 22.0493 11.9498 24.108 12.0861 26.1315L12.088 26.1598L12.0915 26.188C12.2538 27.4895 11.9958 28.9704 11.3594 30.1219C10.7426 31.2379 9.82956 31.9602 8.65592 32.0611C6.36972 31.8962 4.37734 30.5416 2.97917 28.5466C1.56481 26.5286 0.826701 23.9423 1.03467 21.5455ZM25.5715 26.9727L25.5863 26.9726L25.6011 26.9722C28.8059 26.8698 31.7072 28.8677 34.0608 31.4271C37.0597 34.9639 39.7782 38.808 41.1734 43.1773L41.1875 43.2215L41.2057 43.2642C41.7537 44.5541 41.616 46.0434 40.9712 47.1901C40.3355 48.3206 39.2569 49.0478 37.918 48.9975L37.8937 48.9966L37.8693 48.9969C36.2857 49.0145 34.8105 48.4175 33.1384 47.6774C33.0326 47.6306 32.9258 47.5831 32.8181 47.5352C31.2958 46.858 29.5898 46.0991 27.7152 45.9445C25.2927 45.6471 23.0813 46.3128 21.0613 47.0457C20.6635 47.19 20.2752 47.3358 19.8937 47.4791C18.2703 48.0887 16.7699 48.6521 15.1881 48.8574L15.1503 48.8623L15.113 48.8701C12.8719 49.3367 10.4663 47.3577 10.3783 44.8596C10.6923 41.1181 12.288 37.5197 14.3017 34.269L14.3148 34.2478L14.3269 34.226C16.6553 30.012 20.9667 26.9834 25.5715 26.9727Z" stroke="#8B6AFF" stroke-width="2"/>
</g>
<defs>
<clipPath id="clip0_178_106">
<rect width="50" height="50" fill="white"/>
</clipPath>
</defs>
</svg>
