<svg width="15" height="15" viewBox="0 0 15 15" fill="none" xmlns="http://www.w3.org/2000/svg">
<path d="M14.4642 7.5C14.4642 8.01826 13.9844 8.43779 13.3928 8.43779H8.57136V12.6565C8.57136 13.1748 8.09156 13.5938 7.49993 13.5938C6.9083 13.5938 6.4285 13.1748 6.4285 12.6565V8.43779H1.60707C1.01544 8.43779 0.535645 8.01826 0.535645 7.5C0.535645 6.98174 1.01544 6.56279 1.60707 6.56279H6.4285V2.34404C6.4285 1.82578 6.9083 1.40625 7.49993 1.40625C8.09156 1.40625 8.57136 1.82578 8.57136 2.34404V6.56279H13.3928C13.9854 6.5625 14.4642 6.98145 14.4642 7.5Z" fill="#AEAEAF" fill-opacity="0.5"/>
</svg>
