<svg width="50" height="50" viewBox="0 0 50 50" fill="none" xmlns="http://www.w3.org/2000/svg">
<g clip-path="url(#clip0_47_279)">
<mask id="path-1-inside-1_47_279" fill="white">
<path d="M49.936 25.6287C49.6414 24.2257 48.4517 23.428 48.068 23.203C47.5497 22.7806 45.3905 21.3296 42.1091 23.2246C39.8142 24.5348 37.3291 25.4349 34.7548 25.8886C30.915 26.5479 27.2715 26.0642 23.925 24.4447C17.7079 21.4451 12.6213 12.3042 10.4895 4.99699C10.5307 4.63602 10.5786 4.29069 10.6323 3.98267C10.8778 2.57249 10.4039 1.71218 9.96546 1.23932C9.02007 0.22981 7.39644 -0.240651 6.01602 0.120316C3.56347 0.742383 2.78591 3.40392 2.75394 3.51702C2.71733 3.64594 2.70535 3.78123 2.71867 3.91506C2.732 4.04889 2.77038 4.17861 2.83158 4.29671C4.45292 7.43833 5.55246 11.4415 4.54426 12.1622C3.65937 12.7951 2.58381 14.476 1.73661 16.5491C0.693797 19.1169 0.109322 21.8653 0.012507 24.6565C-0.148485 29.5031 1.18512 36.5443 8.44917 42.5677C14.3967 47.5009 20.8707 50 27.6929 50H27.7351C33.2819 49.9916 39.1324 48.3817 45.6212 45.08C47.0781 44.3388 47.4983 43.3498 47.5942 42.6495C47.7997 41.1479 46.7173 39.8905 46.3748 39.5355C46.1012 39.1587 45.7769 38.826 45.4122 38.5477C46.1464 37.9846 46.8897 37.3842 47.6342 36.7525C48.8193 35.7454 49.0397 34.707 49.0157 34.0115C48.9643 32.54 47.834 31.5161 47.4652 31.2201C47.3834 31.13 47.2973 31.0445 47.2071 30.9638C47.8522 30.2057 48.4996 29.3996 49.1425 28.5573C50.0536 27.3505 50.0764 26.3025 49.936 25.6287ZM45.6714 42.3595C45.6155 42.7566 45.0857 43.0814 44.7763 43.2391C38.5558 46.4036 32.9805 47.9461 27.7305 47.9545H27.6894C21.2258 47.9545 15.3239 45.6684 9.64919 40.9602C3.02682 35.4674 1.80511 29.1012 1.95012 24.7287C2.03756 22.1909 2.56903 19.692 3.51779 17.3577C4.36043 15.2942 5.24418 14.1319 5.63238 13.8539C7.0482 12.842 7.24687 10.681 6.22155 7.43111C5.81281 6.17023 5.32063 4.94113 4.74864 3.75285C4.977 3.24629 5.50793 2.34989 6.46931 2.10443C7.26856 1.90109 8.16601 2.23679 8.57591 2.67957C8.64784 2.75658 8.83624 2.95993 8.72206 3.6229C8.65013 4.0332 8.58733 4.49043 8.53481 4.98255C8.12034 8.98327 8.57819 14.1066 9.7588 18.6873C10.815 22.7782 12.9718 28.4719 17.2569 32.3294C20.7668 35.4891 25.0793 37.6236 30.078 38.668C31.9181 39.0499 33.7838 39.2785 35.658 39.3515C37.1304 39.4136 38.6052 39.377 40.0732 39.242C40.3941 39.2107 40.7047 39.1986 41.0049 39.201C41.7654 39.1962 42.5205 39.3343 43.2349 39.6089C44.3138 40.0445 44.7649 40.6774 44.8174 40.7568C44.8611 40.8331 44.9158 40.9017 44.9795 40.9602C45.2376 41.2092 45.7434 41.8794 45.6714 42.3595ZM46.4147 35.1594C45.41 36.0125 44.4086 36.8054 43.4324 37.5201L43.349 37.4961L43.1995 37.4516L43.0773 37.4179L42.9254 37.3806L42.8055 37.3529L42.6114 37.312L42.4756 37.2867L42.2643 37.2518L42.1502 37.235L41.9777 37.2133L41.8556 37.2001L41.6752 37.1796L41.561 37.1712C41.4639 37.164 41.3669 37.1592 41.2687 37.1556H41.2265C41.1389 37.1556 41.0499 37.1556 40.9593 37.1556H40.8896C40.7378 37.1556 40.5848 37.1556 40.4329 37.1664H40.4044C40.2399 37.1748 40.0732 37.1856 39.9054 37.2013C38.5501 37.3265 37.1888 37.3626 35.8292 37.3096C34.0268 37.2442 32.2323 37.027 30.4628 36.6598C25.7941 35.6816 21.7773 33.6999 18.5243 30.7713C14.6148 27.2554 12.619 21.9673 11.6348 18.1506C11.5716 17.91 11.5118 17.6693 11.4555 17.4287C11.4555 17.4046 11.4429 17.3818 11.4372 17.3577C11.3973 17.1844 11.3584 17.01 11.323 16.8355C11.3025 16.7417 11.2808 16.6478 11.2603 16.554C11.3364 16.7561 11.4152 16.9566 11.4966 17.1556C11.5194 17.2133 11.5411 17.2759 11.564 17.33C11.669 17.5899 11.7756 17.8474 11.8837 18.1025C12.0907 18.5886 12.3038 19.0639 12.5231 19.5283C14.6422 24.0152 17.3357 27.4528 20.3649 29.5211C23.9798 31.9889 28.1576 33.2884 32.7818 33.3847C32.9531 33.3847 33.1243 33.3847 33.2922 33.3847H33.7044C36.0125 33.3474 38.3088 33.028 40.5471 32.4329H40.5585L40.7469 32.3812L40.7732 32.374L40.9376 32.3282L40.9844 32.315L41.1226 32.2753L41.1899 32.256L41.3041 32.2236L41.3966 32.1959L41.4754 32.1718L41.5964 32.1333L41.6375 32.1213L41.7928 32.0719C42.5031 31.8272 43.2502 31.7231 43.9964 31.7651C44.4489 31.794 44.8929 31.9081 45.3072 32.102C45.5902 32.2322 45.8483 32.4157 46.0688 32.6435C46.1209 32.7149 46.1842 32.7763 46.256 32.8252C46.465 32.9804 47.0621 33.5471 47.0781 34.0946C47.0872 34.4194 46.8657 34.7792 46.4182 35.1594H46.4147ZM47.6239 27.2747C46.8989 28.2373 46.1658 29.1373 45.4408 29.9699L45.2969 29.9278L45.2581 29.9158C45.185 29.8953 45.1085 29.8761 45.0297 29.8568L44.9624 29.8424C44.9053 29.8291 44.8482 29.8171 44.7854 29.8051L44.6986 29.7906C44.6408 29.7794 44.5814 29.7698 44.5205 29.7618L44.4337 29.7497C44.3561 29.7401 44.2762 29.7317 44.1951 29.7245H44.1597C44.0672 29.7172 43.9713 29.7124 43.8743 29.7088H43.7886C43.7167 29.7088 43.6448 29.7088 43.5717 29.7088H43.4655C43.3924 29.7088 43.3194 29.7088 43.244 29.7184H43.1424C43.0419 29.7257 42.9391 29.7353 42.8352 29.7485H42.817C42.7028 29.763 42.5886 29.7798 42.4744 29.7991L42.3694 29.8183C42.2849 29.834 42.1993 29.8496 42.1136 29.8688L41.988 29.8965C41.9012 29.9158 41.8133 29.9374 41.7254 29.9615L41.6112 29.9916C41.4841 30.0269 41.3551 30.067 41.2242 30.1119C41.0643 30.1636 40.8816 30.2178 40.6932 30.2755C38.1315 31.024 35.481 31.381 32.8229 31.3356C28.5652 31.2477 24.7299 30.0578 21.4222 27.8005C21.308 27.7235 21.1938 27.6441 21.0865 27.5599L20.9723 27.4768C20.8992 27.4227 20.825 27.3685 20.7531 27.312L20.624 27.2109L20.4277 27.0545L20.2929 26.9426C20.2313 26.8909 20.1685 26.8391 20.108 26.7862L19.9721 26.6659C19.9116 26.6129 19.8522 26.5588 19.7928 26.5046L19.6581 26.3843L19.4823 26.2195L19.351 26.0931L19.1774 25.9211C19.1352 25.879 19.0918 25.8356 19.0507 25.7923C18.9913 25.7334 18.9365 25.672 18.876 25.6118C18.8349 25.5697 18.7949 25.5276 18.7549 25.4843C18.6944 25.4205 18.6351 25.3555 18.5757 25.2906L18.4615 25.1703C18.3964 25.0981 18.3325 25.0247 18.2685 24.9513L18.1783 24.8466C18.0938 24.7479 18.0094 24.6493 17.9271 24.5482L17.8986 24.5157C17.8061 24.4014 17.7136 24.2871 17.6223 24.1716C17.6029 24.1475 17.5846 24.1222 17.5663 24.0982C17.494 24.0083 17.4232 23.9169 17.354 23.8238C17.3243 23.7853 17.2957 23.7456 17.2672 23.7035C17.2078 23.6253 17.153 23.5459 17.0914 23.4629C17.0582 23.4184 17.0274 23.3738 16.9954 23.3293C16.9406 23.2535 16.8813 23.1777 16.8322 23.1007L16.7351 22.9599L16.581 22.7409L16.4828 22.5954L16.3321 22.3667L16.2362 22.2175L16.0889 21.9853C16.058 21.936 16.0261 21.8867 15.9952 21.8361L15.848 21.5955L15.7612 21.4511L15.6105 21.196L15.5283 21.0564C15.4746 20.9626 15.4209 20.8687 15.3684 20.7737L15.3045 20.6618L15.1092 20.3008L15.0864 20.2587C15.0122 20.1215 14.9391 19.9844 14.8672 19.8448C14.7964 19.71 14.7279 19.5753 14.6594 19.4393C14.6422 19.4044 14.6251 19.3695 14.6068 19.3346L14.4561 19.029L14.391 18.893C14.3465 18.8016 14.302 18.7089 14.2586 18.6163C14.2346 18.567 14.2118 18.5164 14.1878 18.4659C14.1467 18.378 14.1067 18.289 14.0656 18.2012L13.9937 18.0423L13.8795 17.7812L13.8087 17.62L13.6945 17.3589L13.626 17.1977L13.5119 16.9342L13.4456 16.7741L13.3315 16.5034L13.2698 16.3494C13.2321 16.2544 13.1944 16.1581 13.1556 16.0618C13.1419 16.0269 13.1271 15.9909 13.1134 15.9548C13.3349 16.3326 13.5598 16.7036 13.7882 17.0677C16.5833 21.5197 19.8031 24.713 23.1029 26.3049C26.8194 28.1013 30.8408 28.6367 35.0677 27.9148C37.86 27.4231 40.5557 26.4473 43.0453 25.0271C45.4248 23.653 46.7641 24.7239 46.884 24.8273C46.9477 24.8922 47.0215 24.9451 47.1021 24.9838C47.2711 25.0716 47.9265 25.518 48.0452 26.0799C48.1126 26.4156 47.9733 26.8187 47.6273 27.2747H47.6239Z"/>
</mask>
<path d="M49.936 25.6287C49.6414 24.2257 48.4517 23.428 48.068 23.203C47.5497 22.7806 45.3905 21.3296 42.1091 23.2246C39.8142 24.5348 37.3291 25.4349 34.7548 25.8886C30.915 26.5479 27.2715 26.0642 23.925 24.4447C17.7079 21.4451 12.6213 12.3042 10.4895 4.99699C10.5307 4.63602 10.5786 4.29069 10.6323 3.98267C10.8778 2.57249 10.4039 1.71218 9.96546 1.23932C9.02007 0.22981 7.39644 -0.240651 6.01602 0.120316C3.56347 0.742383 2.78591 3.40392 2.75394 3.51702C2.71733 3.64594 2.70535 3.78123 2.71867 3.91506C2.732 4.04889 2.77038 4.17861 2.83158 4.29671C4.45292 7.43833 5.55246 11.4415 4.54426 12.1622C3.65937 12.7951 2.58381 14.476 1.73661 16.5491C0.693797 19.1169 0.109322 21.8653 0.012507 24.6565C-0.148485 29.5031 1.18512 36.5443 8.44917 42.5677C14.3967 47.5009 20.8707 50 27.6929 50H27.7351C33.2819 49.9916 39.1324 48.3817 45.6212 45.08C47.0781 44.3388 47.4983 43.3498 47.5942 42.6495C47.7997 41.1479 46.7173 39.8905 46.3748 39.5355C46.1012 39.1587 45.7769 38.826 45.4122 38.5477C46.1464 37.9846 46.8897 37.3842 47.6342 36.7525C48.8193 35.7454 49.0397 34.707 49.0157 34.0115C48.9643 32.54 47.834 31.5161 47.4652 31.2201C47.3834 31.13 47.2973 31.0445 47.2071 30.9638C47.8522 30.2057 48.4996 29.3996 49.1425 28.5573C50.0536 27.3505 50.0764 26.3025 49.936 25.6287ZM45.6714 42.3595C45.6155 42.7566 45.0857 43.0814 44.7763 43.2391C38.5558 46.4036 32.9805 47.9461 27.7305 47.9545H27.6894C21.2258 47.9545 15.3239 45.6684 9.64919 40.9602C3.02682 35.4674 1.80511 29.1012 1.95012 24.7287C2.03756 22.1909 2.56903 19.692 3.51779 17.3577C4.36043 15.2942 5.24418 14.1319 5.63238 13.8539C7.0482 12.842 7.24687 10.681 6.22155 7.43111C5.81281 6.17023 5.32063 4.94113 4.74864 3.75285C4.977 3.24629 5.50793 2.34989 6.46931 2.10443C7.26856 1.90109 8.16601 2.23679 8.57591 2.67957C8.64784 2.75658 8.83624 2.95993 8.72206 3.6229C8.65013 4.0332 8.58733 4.49043 8.53481 4.98255C8.12034 8.98327 8.57819 14.1066 9.7588 18.6873C10.815 22.7782 12.9718 28.4719 17.2569 32.3294C20.7668 35.4891 25.0793 37.6236 30.078 38.668C31.9181 39.0499 33.7838 39.2785 35.658 39.3515C37.1304 39.4136 38.6052 39.377 40.0732 39.242C40.3941 39.2107 40.7047 39.1986 41.0049 39.201C41.7654 39.1962 42.5205 39.3343 43.2349 39.6089C44.3138 40.0445 44.7649 40.6774 44.8174 40.7568C44.8611 40.8331 44.9158 40.9017 44.9795 40.9602C45.2376 41.2092 45.7434 41.8794 45.6714 42.3595ZM46.4147 35.1594C45.41 36.0125 44.4086 36.8054 43.4324 37.5201L43.349 37.4961L43.1995 37.4516L43.0773 37.4179L42.9254 37.3806L42.8055 37.3529L42.6114 37.312L42.4756 37.2867L42.2643 37.2518L42.1502 37.235L41.9777 37.2133L41.8556 37.2001L41.6752 37.1796L41.561 37.1712C41.4639 37.164 41.3669 37.1592 41.2687 37.1556H41.2265C41.1389 37.1556 41.0499 37.1556 40.9593 37.1556H40.8896C40.7378 37.1556 40.5848 37.1556 40.4329 37.1664H40.4044C40.2399 37.1748 40.0732 37.1856 39.9054 37.2013C38.5501 37.3265 37.1888 37.3626 35.8292 37.3096C34.0268 37.2442 32.2323 37.027 30.4628 36.6598C25.7941 35.6816 21.7773 33.6999 18.5243 30.7713C14.6148 27.2554 12.619 21.9673 11.6348 18.1506C11.5716 17.91 11.5118 17.6693 11.4555 17.4287C11.4555 17.4046 11.4429 17.3818 11.4372 17.3577C11.3973 17.1844 11.3584 17.01 11.323 16.8355C11.3025 16.7417 11.2808 16.6478 11.2603 16.554C11.3364 16.7561 11.4152 16.9566 11.4966 17.1556C11.5194 17.2133 11.5411 17.2759 11.564 17.33C11.669 17.5899 11.7756 17.8474 11.8837 18.1025C12.0907 18.5886 12.3038 19.0639 12.5231 19.5283C14.6422 24.0152 17.3357 27.4528 20.3649 29.5211C23.9798 31.9889 28.1576 33.2884 32.7818 33.3847C32.9531 33.3847 33.1243 33.3847 33.2922 33.3847H33.7044C36.0125 33.3474 38.3088 33.028 40.5471 32.4329H40.5585L40.7469 32.3812L40.7732 32.374L40.9376 32.3282L40.9844 32.315L41.1226 32.2753L41.1899 32.256L41.3041 32.2236L41.3966 32.1959L41.4754 32.1718L41.5964 32.1333L41.6375 32.1213L41.7928 32.0719C42.5031 31.8272 43.2502 31.7231 43.9964 31.7651C44.4489 31.794 44.8929 31.9081 45.3072 32.102C45.5902 32.2322 45.8483 32.4157 46.0688 32.6435C46.1209 32.7149 46.1842 32.7763 46.256 32.8252C46.465 32.9804 47.0621 33.5471 47.0781 34.0946C47.0872 34.4194 46.8657 34.7792 46.4182 35.1594H46.4147ZM47.6239 27.2747C46.8989 28.2373 46.1658 29.1373 45.4408 29.9699L45.2969 29.9278L45.2581 29.9158C45.185 29.8953 45.1085 29.8761 45.0297 29.8568L44.9624 29.8424C44.9053 29.8291 44.8482 29.8171 44.7854 29.8051L44.6986 29.7906C44.6408 29.7794 44.5814 29.7698 44.5205 29.7618L44.4337 29.7497C44.3561 29.7401 44.2762 29.7317 44.1951 29.7245H44.1597C44.0672 29.7172 43.9713 29.7124 43.8743 29.7088H43.7886C43.7167 29.7088 43.6448 29.7088 43.5717 29.7088H43.4655C43.3924 29.7088 43.3194 29.7088 43.244 29.7184H43.1424C43.0419 29.7257 42.9391 29.7353 42.8352 29.7485H42.817C42.7028 29.763 42.5886 29.7798 42.4744 29.7991L42.3694 29.8183C42.2849 29.834 42.1993 29.8496 42.1136 29.8688L41.988 29.8965C41.9012 29.9158 41.8133 29.9374 41.7254 29.9615L41.6112 29.9916C41.4841 30.0269 41.3551 30.067 41.2242 30.1119C41.0643 30.1636 40.8816 30.2178 40.6932 30.2755C38.1315 31.024 35.481 31.381 32.8229 31.3356C28.5652 31.2477 24.7299 30.0578 21.4222 27.8005C21.308 27.7235 21.1938 27.6441 21.0865 27.5599L20.9723 27.4768C20.8992 27.4227 20.825 27.3685 20.7531 27.312L20.624 27.2109L20.4277 27.0545L20.2929 26.9426C20.2313 26.8909 20.1685 26.8391 20.108 26.7862L19.9721 26.6659C19.9116 26.6129 19.8522 26.5588 19.7928 26.5046L19.6581 26.3843L19.4823 26.2195L19.351 26.0931L19.1774 25.9211C19.1352 25.879 19.0918 25.8356 19.0507 25.7923C18.9913 25.7334 18.9365 25.672 18.876 25.6118C18.8349 25.5697 18.7949 25.5276 18.7549 25.4843C18.6944 25.4205 18.6351 25.3555 18.5757 25.2906L18.4615 25.1703C18.3964 25.0981 18.3325 25.0247 18.2685 24.9513L18.1783 24.8466C18.0938 24.7479 18.0094 24.6493 17.9271 24.5482L17.8986 24.5157C17.8061 24.4014 17.7136 24.2871 17.6223 24.1716C17.6029 24.1475 17.5846 24.1222 17.5663 24.0982C17.494 24.0083 17.4232 23.9169 17.354 23.8238C17.3243 23.7853 17.2957 23.7456 17.2672 23.7035C17.2078 23.6253 17.153 23.5459 17.0914 23.4629C17.0582 23.4184 17.0274 23.3738 16.9954 23.3293C16.9406 23.2535 16.8813 23.1777 16.8322 23.1007L16.7351 22.9599L16.581 22.7409L16.4828 22.5954L16.3321 22.3667L16.2362 22.2175L16.0889 21.9853C16.058 21.936 16.0261 21.8867 15.9952 21.8361L15.848 21.5955L15.7612 21.4511L15.6105 21.196L15.5283 21.0564C15.4746 20.9626 15.4209 20.8687 15.3684 20.7737L15.3045 20.6618L15.1092 20.3008L15.0864 20.2587C15.0122 20.1215 14.9391 19.9844 14.8672 19.8448C14.7964 19.71 14.7279 19.5753 14.6594 19.4393C14.6422 19.4044 14.6251 19.3695 14.6068 19.3346L14.4561 19.029L14.391 18.893C14.3465 18.8016 14.302 18.7089 14.2586 18.6163C14.2346 18.567 14.2118 18.5164 14.1878 18.4659C14.1467 18.378 14.1067 18.289 14.0656 18.2012L13.9937 18.0423L13.8795 17.7812L13.8087 17.62L13.6945 17.3589L13.626 17.1977L13.5119 16.9342L13.4456 16.7741L13.3315 16.5034L13.2698 16.3494C13.2321 16.2544 13.1944 16.1581 13.1556 16.0618C13.1419 16.0269 13.1271 15.9909 13.1134 15.9548C13.3349 16.3326 13.5598 16.7036 13.7882 17.0677C16.5833 21.5197 19.8031 24.713 23.1029 26.3049C26.8194 28.1013 30.8408 28.6367 35.0677 27.9148C37.86 27.4231 40.5557 26.4473 43.0453 25.0271C45.4248 23.653 46.7641 24.7239 46.884 24.8273C46.9477 24.8922 47.0215 24.9451 47.1021 24.9838C47.2711 25.0716 47.9265 25.518 48.0452 26.0799C48.1126 26.4156 47.9733 26.8187 47.6273 27.2747H47.6239Z" stroke="#8B6AFF" stroke-width="4" mask="url(#path-1-inside-1_47_279)"/>
<path d="M43.8931 41.0785L44.1925 41.368L44.1996 41.375L44.1925 41.3681L43.8931 41.0785ZM43.8931 41.0785C43.8214 41.1114 43.7497 41.1439 43.6781 41.1762C43.6751 41.1775 43.6722 41.1788 43.6692 41.1801L44.0558 41.0035C44.0469 41.0076 44.038 41.0118 44.0291 41.0159C43.9837 41.0369 43.9384 41.0578 43.8931 41.0785ZM6.69883 15.763L6.71071 15.7821L6.69883 15.763Z" stroke="#8B6AFF" stroke-width="2"/>
<path d="M8.29503 3.2487C8.24237 3.15166 8.15536 3.08058 8.05305 3.05103C7.95075 3.02148 7.8415 3.03589 7.74925 3.09108C7.32908 3.34496 6.40194 3.49777 5.51363 3.28119C5.41879 3.2739 5.32458 3.3025 5.24795 3.36184C5.17131 3.42119 5.11727 3.50739 5.09554 3.60495C5.0738 3.70251 5.0858 3.80505 5.12936 3.89413C5.17293 3.98321 5.24522 4.053 5.33323 4.09096C5.68327 4.17325 6.04102 4.21362 6.39966 4.21128C7.06646 4.21128 7.70929 4.0717 8.14545 3.8082C8.23384 3.75306 8.29868 3.66418 8.32653 3.56C8.35438 3.45583 8.3431 3.34435 8.29503 3.2487V3.2487Z" stroke="#8B6AFF" stroke-width="2"/>
</g>
<defs>
<clipPath id="clip0_47_279">
<rect width="50" height="50" fill="white"/>
</clipPath>
</defs>
</svg>
