<svg width="45" height="45" viewBox="0 0 45 45" fill="none" xmlns="http://www.w3.org/2000/svg">
<g clip-path="url(#clip0_45_155)">
<path d="M22.5 45C10.0723 45 0 34.9277 0 22.5C0 10.0723 10.0723 0 22.5 0C34.9277 0 45 10.0723 45 22.5C45 34.9277 34.9277 45 22.5 45ZM20.3906 22.5C20.3906 23.2031 20.7422 23.8623 21.3311 24.1787L29.7686 29.8037C30.7354 30.5244 32.0449 30.2607 32.6162 29.2939C33.3369 28.3271 33.0732 27.0176 32.1064 26.3672L24.6094 21.375V10.5469C24.6094 9.37793 23.6689 8.4375 22.4209 8.4375C21.3311 8.4375 20.3115 9.37793 20.3115 10.5469L20.3906 22.5Z" fill="white"/>
</g>
<defs>
<clipPath id="clip0_45_155">
<rect width="45" height="45" fill="white"/>
</clipPath>
</defs>
</svg>
