<svg width="20" height="20" viewBox="0 0 20 20" fill="none" xmlns="http://www.w3.org/2000/svg">
<g clip-path="url(#clip0_47_235)">
<path d="M19.543 17.332L14.8673 12.6563C15.9305 11.0777 16.4552 9.10548 16.1743 7.00392C15.6954 3.42931 12.7657 0.520322 9.18758 0.0673141C3.86765 -0.60585 -0.605782 3.86759 0.0674207 9.18751C0.520546 12.7672 3.42992 15.6992 7.00492 16.1758C9.10648 16.4566 11.0791 15.9322 12.6573 14.8688L17.333 19.5445C17.9432 20.1547 18.9327 20.1547 19.5428 19.5445C20.1524 18.9336 20.1524 17.9414 19.543 17.332ZM3.08992 8.12501C3.08992 5.36798 5.33289 3.12501 8.08992 3.12501C10.847 3.12501 13.0899 5.36798 13.0899 8.12501C13.0899 10.882 10.847 13.125 8.08992 13.125C5.33289 13.125 3.08992 10.8828 3.08992 8.12501Z" fill="#F98181"/>
</g>
<defs>
<clipPath id="clip0_47_235">
<rect width="20" height="20" fill="white"/>
</clipPath>
</defs>
</svg>
