<svg width="30" height="30" viewBox="0 0 30 30" fill="none" xmlns="http://www.w3.org/2000/svg">
<g clip-path="url(#clip0_196_85)">
<path d="M28.4644 11.8509L26.3587 11.4936C26.1394 10.7855 25.8574 10.1024 25.5127 9.45063L26.7535 7.71469C27.28 6.97519 27.1985 5.96621 26.553 5.32699L24.6855 3.45944C24.3345 3.10849 23.8708 2.91422 23.3757 2.91422C22.9871 2.91422 22.6174 3.03329 22.304 3.2589L20.5618 4.49975C19.885 4.14253 19.1768 3.84799 18.4436 3.62865L18.0926 1.54802C17.9422 0.651853 17.1714 9.15527e-05 16.2627 9.15527e-05H13.6243C12.7156 9.15527e-05 11.9448 0.651853 11.7944 1.54802L11.4309 3.67878C10.729 3.89812 10.0459 4.1864 9.39413 4.53735L7.67073 3.2965C7.35738 3.07089 6.98136 2.95182 6.59281 2.95182C6.09773 2.95182 5.62771 3.14609 5.28303 3.49704L3.40921 5.36459C2.76998 6.00381 2.68225 7.01279 3.20867 7.75229L4.46206 9.5133C4.11738 10.1713 3.84163 10.8544 3.62855 11.5626L1.54793 11.9135C0.651761 12.0639 0 12.8348 0 13.7435V16.3819C0 17.2906 0.651761 18.0614 1.54793 18.2118L3.67869 18.5753C3.89803 19.2772 4.18631 19.9603 4.53726 20.612L3.30267 22.3292C2.77625 23.0687 2.85772 24.0777 3.50322 24.7169L5.37076 26.5844C5.72171 26.9354 6.18546 27.1296 6.68055 27.1296C7.0691 27.1296 7.43885 27.0106 7.7522 26.785L9.51321 25.5316C10.1462 25.8637 10.8105 26.1332 11.4936 26.3463L11.8445 28.452C11.9949 29.3481 12.7657 29.9999 13.6744 29.9999H16.3191C17.2278 29.9999 17.9986 29.3481 18.149 28.452L18.5063 26.3463C19.2144 26.1269 19.8975 25.8449 20.5493 25.5002L22.2852 26.7411C22.5986 26.9667 22.9746 27.0858 23.3631 27.0858C23.8582 27.0858 24.322 26.8915 24.6729 26.5406L26.5405 24.673C27.1797 24.0338 27.2674 23.0248 26.741 22.2853L25.5002 20.5431C25.8448 19.8851 26.1331 19.202 26.3462 18.5001L28.4519 18.1491C29.3481 17.9987 29.9998 17.2279 29.9998 16.3192V13.6808C30.0123 12.7721 29.3606 12.0013 28.4644 11.8509ZM28.3203 16.3192C28.3203 16.4007 28.2639 16.4696 28.1824 16.4821L25.5503 16.9208C25.2181 16.9772 24.9549 17.2216 24.8735 17.5412C24.6353 18.4625 24.2718 19.3461 23.783 20.1671C23.6138 20.4554 23.6263 20.8126 23.8206 21.0883L25.3685 23.2692C25.4124 23.3319 25.4061 23.4259 25.3497 23.4823L23.4822 25.3498C23.4383 25.3937 23.3945 25.4 23.3631 25.4C23.3255 25.4 23.2942 25.3874 23.2691 25.3686L21.0945 23.8207C20.825 23.6264 20.4615 23.6139 20.1733 23.7831C19.3523 24.2719 18.4687 24.6354 17.5474 24.8736C17.2215 24.955 16.9771 25.2245 16.927 25.5504L16.482 28.1825C16.4695 28.264 16.4006 28.3204 16.3191 28.3204H13.6807C13.5992 28.3204 13.5303 28.264 13.5178 28.1825L13.0791 25.5504C13.0227 25.2182 12.7783 24.955 12.4587 24.8736C11.5625 24.6417 10.6977 24.2845 9.88922 23.8207C9.75762 23.7455 9.60721 23.7079 9.46307 23.7079C9.29386 23.7079 9.11839 23.758 8.97425 23.8646L6.78082 25.425C6.74949 25.4438 6.71815 25.4564 6.68682 25.4564C6.66175 25.4564 6.61162 25.4501 6.56775 25.4062L4.7002 23.5387C4.6438 23.4823 4.63753 23.3946 4.6814 23.3256L6.22307 21.1635C6.41734 20.8878 6.42987 20.5243 6.26067 20.236C5.77185 19.4213 5.39583 18.5377 5.15769 17.6164C5.06995 17.2968 4.80674 17.0524 4.48086 16.996L1.82994 16.5448C1.74847 16.5323 1.69207 16.4633 1.69207 16.3819V13.7435C1.69207 13.662 1.74847 13.5931 1.82994 13.5805L4.44326 13.1419C4.7754 13.0854 5.04488 12.841 5.12635 12.5152C5.35823 11.5939 5.71544 10.704 6.198 9.88305C6.3672 9.59477 6.3484 9.23755 6.15413 8.96807L4.59366 6.77465C4.54979 6.71198 4.55606 6.61797 4.61246 6.56157L6.48001 4.69402C6.52388 4.65016 6.56775 4.64389 6.59908 4.64389C6.63668 4.64389 6.66802 4.65642 6.69309 4.67522L8.85518 6.21689C9.13092 6.41116 9.4944 6.4237 9.78268 6.25449C10.5974 5.76567 11.481 5.38965 12.4023 5.15151C12.7219 5.06377 12.9663 4.80056 13.0227 4.47468L13.4739 1.82377C13.4864 1.7423 13.5554 1.6859 13.6368 1.6859H16.2752C16.3567 1.6859 16.4256 1.7423 16.4382 1.82377L16.8769 4.43708C16.9333 4.76923 17.1777 5.03871 17.5035 5.12018C18.4499 5.35832 19.3523 5.72807 20.1921 6.22316C20.4803 6.39236 20.8376 6.37983 21.1133 6.18555L23.2754 4.63136C23.3067 4.61255 23.3381 4.60002 23.3694 4.60002C23.3945 4.60002 23.4446 4.60629 23.4885 4.65016L25.356 6.5177C25.4124 6.5741 25.4187 6.66184 25.3748 6.73078L23.8269 8.9054C23.6326 9.17488 23.6201 9.53836 23.7893 9.82664C24.2781 10.6476 24.6416 11.5312 24.8797 12.4525C24.9612 12.7784 25.2307 13.0228 25.5566 13.0729L28.1887 13.5179C28.2701 13.5304 28.3265 13.5993 28.3265 13.6808V16.3192H28.3203V16.3192Z" fill="#F98181"/>
<path d="M15.003 8.52307C11.4309 8.52307 8.5293 11.4247 8.5293 14.9968C8.5293 18.569 11.4309 21.4706 15.003 21.4706C18.5752 21.4706 21.4768 18.569 21.4768 14.9968C21.4768 11.4247 18.5752 8.52307 15.003 8.52307ZM15.003 19.7785C12.3647 19.7785 10.2214 17.6352 10.2214 14.9968C10.2214 12.3584 12.3647 10.2151 15.003 10.2151C17.6414 10.2151 19.7847 12.3584 19.7847 14.9968C19.7847 17.6352 17.6414 19.7785 15.003 19.7785Z" fill="#F98181"/>
</g>
<defs>
<clipPath id="clip0_196_85">
<rect width="30" height="30" fill="white"/>
</clipPath>
</defs>
</svg>
