<svg width="282" height="113" viewBox="0 0 282 113" fill="none" xmlns="http://www.w3.org/2000/svg">
<path d="M39.606 112.793H39.6059C11.3889 112.793 -7.75824 84.101 3.07042 58.0445L27.1928 0H89.6928L78.7966 78.6571C76.0861 98.2235 59.3593 112.793 39.606 112.793Z" fill="#8B6AFF"/>
<path d="M142.076 112.793H139.174C115.164 112.793 96.6884 91.5816 99.983 67.7991L109.375 0H171.875L181.267 67.7991C184.562 91.5816 166.086 112.793 142.076 112.793Z" fill="#F98181"/>
<path d="M241.644 112.793H241.644C221.891 112.793 205.164 98.2235 202.453 78.6571L191.557 0H254.057L278.18 58.0445C289.008 84.101 269.861 112.793 241.644 112.793Z" fill="#8B6AFF"/>
</svg>
