<svg width="58" height="50" viewBox="0 0 58 50" fill="none" xmlns="http://www.w3.org/2000/svg">
<g clip-path="url(#clip0_145_71)">
<path d="M13.2578 7.8164C12.5777 7.8054 11.9108 7.82241 11.2617 7.87301C8.66546 8.07575 6.28551 8.84954 4.5918 10.6699C-0.00632334 15.6118 4.75721e-08 21.6083 4.75721e-08 25.0273C1.37364e-06 25.2926 0.105356 25.5469 0.292893 25.7344C0.480429 25.922 0.734784 26.0273 1 26.0273C1.26522 26.0273 1.51957 25.922 1.70711 25.7344C1.89464 25.5469 2 25.2926 2 25.0273C2 21.6083 2.005 16.3877 6.05664 12.0332C7.30956 10.6866 9.11507 10.047 11.418 9.86718C13.7209 9.68734 16.4644 9.99544 19.3379 10.4707C25.0849 11.4212 31.2939 13.0699 36.1523 12.3398C37.0409 12.2063 37.948 12.0104 38.8574 11.7988C38.4773 11.2375 38.2123 10.5948 38.0859 9.90234C37.322 10.0875 36.5706 10.2558 35.8555 10.3633C31.7178 10.985 25.5342 9.46699 19.6641 8.49609C17.4628 8.13201 15.2982 7.84934 13.2578 7.8164ZM48.2832 7.90621C48.1479 7.90421 48.011 7.91121 47.875 7.91421C47.9528 8.26465 48 8.62629 48 9.00015C48 9.3249 47.9673 9.64187 47.9082 9.94937C48.5363 9.92587 49.1451 9.93695 49.7051 10.0334C51.5166 10.345 52.9462 11.2064 54.0938 13.4435C55.2413 15.6807 56 19.3574 56 25.0275C56 25.2927 56.1054 25.5471 56.2929 25.7346C56.4804 25.9221 56.7348 26.0275 57 26.0275C57.2652 26.0275 57.5196 25.9221 57.7071 25.7346C57.8946 25.5471 58 25.2927 58 25.0275C58 19.1837 57.2585 15.2266 55.875 12.5295C54.4915 9.83229 52.3579 8.46056 50.0449 8.06268C49.4667 7.96318 48.8789 7.91423 48.2832 7.90643V7.90621Z" fill="#8B6AFF"/>
<path d="M1 23C0.734784 23 0.480429 23.1054 0.292892 23.2929C0.105356 23.4804 1.36679e-06 23.7348 4.07173e-08 24C4.07173e-08 27.419 -0.0060029 33.4155 4.5918 38.3574C6.25844 40.1487 8.59082 40.923 11.1387 41.1406C10.6362 40.5239 10.2623 39.7999 10.0996 38.9902C8.41953 38.6906 7.05841 38.0708 6.05664 36.9941C2.00508 32.6396 2 27.419 2 24C2 23.7348 1.89464 23.4804 1.70711 23.2929C1.51957 23.1054 1.26522 23 1 23ZM57 23C56.7348 23 56.4804 23.1054 56.2929 23.2929C56.1054 23.4804 56 23.7348 56 24C56 29.6701 55.2413 33.3488 54.0938 35.5859C52.9462 37.8231 51.5166 38.6825 49.7051 38.9941C46.082 39.6174 40.8725 37.3968 36.1523 36.6875C33.9517 36.3568 31.4714 36.5194 28.8867 36.877C29.2635 37.3146 29.5 37.8772 29.5 38.5C29.5 38.6231 29.4801 38.741 29.4629 38.8594C31.8482 38.5399 34.0522 38.3931 35.8555 38.6641C40.1315 39.3066 45.419 41.7626 50.0449 40.9668C52.3579 40.5689 54.4915 39.1952 55.875 36.498C57.2586 33.8009 58 29.8438 58 24C58 23.7348 57.8946 23.4804 57.7071 23.2929C57.5196 23.1054 57.2652 23 57 23ZM24.6836 37.5742C23.11 37.8662 21.5309 38.1734 19.9785 38.4414C19.9096 39.2284 19.6469 39.9538 19.2559 40.5938C19.3926 40.5718 19.527 40.5539 19.6641 40.5312C21.3664 40.2497 23.0818 39.9311 24.7793 39.623C24.6073 39.2839 24.5 38.9062 24.5 38.5C24.5 38.172 24.5687 37.8612 24.6836 37.5742Z" fill="#8B6AFF"/>
<path d="M43 3C39.6981 3 37 5.69813 37 9C37 12.3019 39.6981 15 43 15C46.3019 15 49 12.3019 49 9C49 5.69813 46.3019 3 43 3ZM43 5C45.221 5 47 6.77902 47 9C47 11.221 45.221 13 43 13C40.779 13 39 11.221 39 9C39 6.77902 40.779 5 43 5Z" fill="#8B6AFF"/>
<path d="M32 3C30.0789 3 28.5 4.57885 28.5 6.5C28.5 8.42115 30.0789 10 32 10C33.9212 10 35.5 8.42115 35.5 6.5C35.5 4.57885 33.9212 3 32 3ZM32 5C32.8403 5 33.5 5.65973 33.5 6.5C33.5 7.34027 32.8403 8 32 8C31.1597 8 30.5 7.34027 30.5 6.5C30.5 5.65973 31.1597 5 32 5Z" fill="#8B6AFF"/>
<path d="M53 0C51.0789 0 49.5 1.57885 49.5 3.5C49.5 5.42115 51.0789 7 53 7C54.9212 7 56.5 5.42115 56.5 3.5C56.5 1.57885 54.9212 0 53 0ZM53 2C53.8403 2 54.5 2.65973 54.5 3.5C54.5 4.34027 53.8403 5 53 5C52.1597 5 51.5 4.34027 51.5 3.5C51.5 2.65973 52.1597 2 53 2Z" fill="#8B6AFF"/>
<path d="M15 32C11.6981 32 9 34.6981 9 38C9 41.3019 11.6981 44 15 44C18.3019 44 21 41.3019 21 38C21 34.6981 18.3019 32 15 32ZM15 34C17.221 34 19 35.779 19 38C19 40.221 17.221 42 15 42C12.779 42 11 40.221 11 38C11 35.779 12.779 34 15 34Z" fill="#8B6AFF"/>
<path d="M22.5 43C20.5789 43 19 44.5789 19 46.5C19 48.4212 20.5789 50 22.5 50C24.4212 50 26 48.4212 26 46.5C26 44.5789 24.4212 43 22.5 43ZM22.5 45C23.3403 45 24 45.6597 24 46.5C24 47.3403 23.3403 48 22.5 48C21.6597 48 21 47.3403 21 46.5C21 45.6597 21.6597 45 22.5 45Z" fill="#8B6AFF"/>
<path d="M27 35C25.0789 35 23.5 36.5789 23.5 38.5C23.5 40.4212 25.0789 42 27 42C28.9212 42 30.5 40.4212 30.5 38.5C30.5 36.5789 28.9212 35 27 35ZM27 37C27.8403 37 28.5 37.6597 28.5 38.5C28.5 39.3403 27.8403 40 27 40C26.1597 40 25.5 39.3403 25.5 38.5C25.5 37.6597 26.1597 37 27 37Z" fill="#8B6AFF"/>
<path d="M14.8497 29.1389C13.5823 29.1389 12.6238 28.9306 11.9743 28.5139C11.3248 28.088 11 27.4815 11 26.6945V26.1389H13.4714V26.8056C13.4714 27.4352 13.9229 27.75 14.8259 27.75C15.2695 27.75 15.6022 27.6759 15.824 27.5278C16.0616 27.3704 16.1805 27.1204 16.1805 26.7778C16.1805 26.3704 16.022 26.0139 15.7052 25.7084C15.3883 25.3936 14.8022 25.0186 13.9467 24.5834C12.8694 24.0278 12.1169 23.5278 11.6891 23.0834C11.2614 22.6297 11.0475 22.1204 11.0475 21.5556C11.0475 20.7871 11.3802 20.1945 12.0456 19.7778C12.711 19.3519 13.6774 19.1389 14.9448 19.1389C16.1963 19.1389 17.1389 19.3519 17.7726 19.7778C18.4222 20.1945 18.7469 20.7963 18.7469 21.5834V21.9861H16.2755V21.4861C16.2755 21.1528 16.1646 20.9121 15.9428 20.7639C15.721 20.6065 15.3963 20.5278 14.9685 20.5278C14.0972 20.5278 13.6615 20.838 13.6615 21.4584C13.6615 21.8102 13.8199 22.1389 14.1368 22.4445C14.4695 22.75 15.0636 23.1204 15.9191 23.5556C17.0122 24.1112 17.7647 24.6158 18.1766 25.0695C18.5885 25.5232 18.7945 26.0556 18.7945 26.6667C18.7945 27.463 18.4538 28.0741 17.7726 28.5C17.1072 28.926 16.1329 29.1389 14.8497 29.1389Z" fill="#8B6AFF"/>
<path d="M24.0485 29.1389C22.7652 29.1389 21.783 28.926 21.1018 28.5C20.4206 28.0741 20.08 27.4722 20.08 26.6945V21.5834C20.08 20.8056 20.4206 20.2037 21.1018 19.7778C21.783 19.3519 22.7652 19.1389 24.0485 19.1389C25.3317 19.1389 26.3139 19.3519 26.9952 19.7778C27.6764 20.2037 28.017 20.8056 28.017 21.5834V26.6945C28.017 27.4722 27.6764 28.0741 26.9952 28.5C26.3139 28.926 25.3317 29.1389 24.0485 29.1389ZM24.0485 27.75C24.9515 27.75 25.403 27.4306 25.403 26.7917V21.4861C25.403 20.8473 24.9515 20.5278 24.0485 20.5278C23.1455 20.5278 22.694 20.8473 22.694 21.4861V26.7917C22.694 27.4306 23.1455 27.75 24.0485 27.75Z" fill="#8B6AFF"/>
<path d="M31.7583 19.2778H35.299L38.0081 29H35.3941L34.9188 27.0695V27.0973H31.9484L31.4731 29H29.0492L31.7583 19.2778ZM34.6099 25.7778L33.4455 20.9723H33.398L32.2573 25.7778H34.6099Z" fill="#8B6AFF"/>
<path d="M39.2531 19.2778H43.1028C44.4018 19.2778 45.3761 19.4815 46.0257 19.8889C46.6752 20.2963 47 20.8935 47 21.6806V22.6389C47 23.426 46.6752 24.0232 46.0257 24.4306C45.3761 24.838 44.4018 25.0417 43.1028 25.0417H41.867V29H39.2531V19.2778ZM43.1028 23.6528C43.5305 23.6528 43.8473 23.5833 44.0533 23.4445C44.2751 23.3056 44.386 23.0695 44.386 22.7361V21.5834C44.386 21.25 44.2751 21.0139 44.0533 20.875C43.8473 20.7361 43.5305 20.6667 43.1028 20.6667H41.867V23.6528H43.1028Z" fill="#8B6AFF"/>
</g>
<defs>
<clipPath id="clip0_145_71">
<rect width="58" height="50" fill="white"/>
</clipPath>
</defs>
</svg>
